<?xml version="1.0" standalone="no"?>
<!DOCTYPE svg PUBLIC "-//W3C//DTD SVG 1.1//EN" "http://www.w3.org/Graphics/SVG/1.1/DTD/svg11.dtd" >
<svg xmlns="http://www.w3.org/2000/svg">
<metadata></metadata>
<defs>
<font id="agedbookregular" horiz-adv-x="425" >
<font-face units-per-em="2048" ascent="1638" descent="-410" />
<missing-glyph horiz-adv-x="557" />
<glyph horiz-adv-x="2048" />
<glyph horiz-adv-x="2048" />
<glyph unicode="&#xd;" horiz-adv-x="557" />
<glyph unicode=" "  horiz-adv-x="557" />
<glyph unicode="&#x09;" horiz-adv-x="557" />
<glyph unicode="&#xa0;" horiz-adv-x="557" />
<glyph unicode="!" d="M115 1163q0 16 20 15q61 2 146 2q16 -4 16 -25q0 -16 -10 -20q-29 -16 -29 -35q-6 -27 -6 -805q0 -41 -33 -41q-43 0 -43 43q2 66 -4 395q-6 360 -12 398q-2 12 -31 40q-14 14 -14 33zM135 43q0 76 62 82q33 6 56.5 -10.5t25.5 -51.5q4 -72 -62 -81q-33 -4 -57.5 12 t-24.5 49z" />
<glyph unicode="&#x22;" horiz-adv-x="663" d="M100 1106q0 72 62 82q67 13 94 -53q12 -33 12 -68q0 -125 -123 -164q-29 -8 -28 19q0 14 16 18q57 16 57 64q0 29 -45 42t-45 60zM371 1106q0 72 61 82q69 13 96 -53q12 -33 13 -68q0 -125 -123 -164q-29 -8 -29 19q0 14 17 18q57 16 57 64q0 29 -46 43t-46 59z" />
<glyph unicode="#" horiz-adv-x="759" d="M47 688q0 47 62 45q12 0 43 -2q31 0 36 2q20 10 25 55q4 57 -55 58h-54q-41 -2 -41 35q0 47 60 45q14 0 49 -2q51 0 55 60t4 73q-2 45 48 45q39 0 34 -49q-2 -27 -6 -72q-4 -55 41 -57h60q33 0 41 61q0 18 2 45v27q-2 45 45 45q41 0 36 -49q-2 -18 -6 -66q-6 -63 56 -63 q45 0 55 2q41 4 41 -41q0 -43 -51 -41q-14 0 -52 2q-35 0 -38 -2q-20 -8 -25 -53q-4 -37 -2 -39q6 -20 45 -21q55 0 68 2q41 4 41 -39q0 -45 -52 -43q-14 0 -51 2q-57 0 -63 -63l-4 -70q-2 -43 -41 -43q-45 0 -39 58q2 20 6 69t-68 49q-68 0 -73 -61q-2 -31 -4.5 -73 t-41.5 -42q-45 0 -38 58q2 16 4 57q2 33 0 41q-10 20 -54 20h-55q-43 -2 -43 35zM285 791q-2 -33 6 -43q14 -20 69 -23q43 -2 52 2q24 8 28 59q4 35 -2 45q-14 20 -71 21q-47 0 -52 -2q-27 -8 -30 -59z" />
<glyph unicode="$" horiz-adv-x="739" d="M195 512q0 63 51 117.5t133 54.5q31 0 33 45q6 25 6 49q4 39 33 39q39 0 34 -45q0 -18 -4 -51q-2 -39 43 -68q20 -16 45 -34.5t25 -38.5q0 -45 -45 -45q-12 0 -19 10q-51 78 -143 80q-43 2 -78 -23q-41 -27 -41 -72q0 -23 11 -47q23 -53 153 -86q164 -42 174 -200 q10 -154 -145 -201q-18 -4 -39 -8q-20 -10 -29 -47q-2 -14 -4 -45q-4 -39 -33 -39q-39 0 -34 43q4 41 4 34q4 47 -50 62q-23 6 -45 10q-31 10 -30 29q0 18 12 35.5t29 11.5q18 -8 108 -27q12 -2 27 -2q61 0 107 42t46 89q2 104 -122 142q-213 61 -213 186z" />
<glyph unicode="%" horiz-adv-x="804" d="M51 510q0 57 34 99t97 44q20 0 100 -17.5t121 -19.5q147 -6 195 43q16 18 39 19q49 0 49 -43q0 -13 -10 -21q-94 -82 -295 -342q-172 -223 -209 -284q-10 -18 -33 -19q-53 0 -53 45q0 16 14 31q94 94 396 477q10 12 10 23q0 35 -68 30q-90 -4 -84 -53q8 -70 -22 -116 q-37 -55 -109 -56q-74 0 -123 44t-49 116zM115 489q12 -78 100 -77q43 0 63.5 31.5t14.5 70.5q-6 37 -35 58.5t-65 19.5q-41 -2 -62.5 -33t-15.5 -70zM453 131q-10 66 24.5 117t104.5 53q76 2 125 -41t49 -117q0 -59 -35 -101t-98 -42q-66 0 -111 33q-51 37 -59 98zM514 139 q12 -78 100 -78q41 0 62.5 31t15.5 70q-12 84 -100 78q-41 -2 -62.5 -33t-15.5 -68z" />
<glyph unicode="&#x26;" horiz-adv-x="954" d="M59 367q0 100 54 180q49 70 122.5 100.5t139.5 30.5q72 0 119 -35t55 -86q6 -37 -42 -100.5t-125 -112.5t-189 -96q-27 -6 -13 -37q74 -154 238 -154q49 0 94 15.5t77 57.5t32 85q0 35 -25 59q-33 31 -72 31q-59 0 -59 -47q0 -8 5 -20.5t5 -18.5q0 -27 -29 -26 q-41 0 -40 59q0 74 63 102q35 16 66 17q51 0 100 -45q23 -20 67 -21q53 0 82 23q20 16 21 41q0 27 -19 47q-12 10 -12 22q0 23 25 23q29 0 49 -37t20 -66q1 -40 -30 -71q-41 -39 -119 -39q-41 0 -41 -37q0 -150 -150 -207q-55 -20 -114 -20q-109 0 -201 67.5t-131 181.5 q-23 68 -23 134zM133 383q0 -29 5 -57.5t30 -18.5q59 25 172 86q131 89 125 152t-103 63q-53 0 -104 -24q-125 -61 -125 -201z" />
<glyph unicode="'" horiz-adv-x="360" d="M100 1106q0 72 62 82q67 13 94 -53q12 -33 12 -68q0 -125 -123 -164q-29 -8 -28 19q0 14 16 18q57 16 57 64q0 29 -45 42t-45 60z" />
<glyph unicode="(" horiz-adv-x="636" d="M106 528q0 178 84 340q88 170 238 256q20 12 35 6q12 -6 12 -20q0 -16 -20 -31q-268 -180 -269 -551q0 -170 78 -323q82 -168 225 -252q33 -20 33 -41q0 -18 -18 -25q-20 -6 -45 9q-352 207 -353 632z" />
<glyph unicode=")" horiz-adv-x="636" d="M63 -90q0 23 35 43q141 84 226 250q78 156 77 325q0 178 -79 330q-72 139 -191 221q-18 14 -18 31q0 23 22 23q10 0 25 -9q150 -86 237 -256q82 -162 82 -340q0 -424 -352 -632q-16 -8 -31 -9q-33 0 -33 23z" />
<glyph unicode="*" horiz-adv-x="622" d="M59 887q0 45 58 43h59q25 0 25 12q0 6 -6 12q-39 39 -54.5 52.5t-15.5 31.5q0 43 41 43q23 0 76 -59q6 -8 20 -8q14 -2 14 14q0 55 -2 70q-2 45 43 45q43 0 41 -51v-70q-4 -18 11 -18q6 0 12 6q39 41 52 56t30 15q45 0 45 -43q0 -18 -19 -37q-4 -4 -20 -19t-26.5 -24.5 t-8.5 -19.5t19 -8h71q45 2 45 -43q0 -41 -51 -39h-69q-20 0 -21 -8q0 -6 10 -17q39 -43 54.5 -56t15.5 -32q0 -37 -37 -37q-23 0 -80 58q-12 14 -24 14t-11 -22v-70q0 -45 -39 -45q-43 0 -43 57v64q0 16 -16 16q-8 0 -14 -10l-49 -49q-14 -14 -33 -15q-37 0 -37 39 q0 27 65 86q18 27 -14 29h-72q-45 -2 -45 37z" />
<glyph unicode="+" horiz-adv-x="503" d="M59 422q0 39 57.5 39t69 2t11.5 22q0 6 -2 26.5t-2 37.5q-2 43 43 43q41 0 40 -51q0 -72 6 -77t80 -3q43 2 44 -39q0 -37 -50 -35q-57 2 -55 4q-31 -4 -31 -33q0 -2 4 -59q4 -45 -36 -45q-47 0 -45 60.5t-6.5 68.5t-82.5 6q-45 -2 -45 33z" />
<glyph unicode="," horiz-adv-x="360" d="M100 43q0 76 62 82q67 15 94 -51q14 -33 14 -70q0 -125 -125 -164q-29 -8 -28 19q0 16 16 20q57 16 57 64q0 29 -45 42t-45 58z" />
<glyph unicode="-" horiz-adv-x="503" d="M59 426q0 43 58 43q208 -2 245 0q43 4 44 -41q0 -41 -50 -41q-221 4 -252 2q-45 -2 -45 37z" />
<glyph unicode="." horiz-adv-x="360" d="M100 43q0 76 62 82q33 6 56.5 -10.5t25.5 -51.5q4 -72 -62 -81q-33 -4 -57.5 12t-24.5 49z" />
<glyph unicode="/" horiz-adv-x="772" d="M55 -51q0 14 11 28q59 84 292 529q221 422 238 467q10 27 35 26q20 0 37.5 -13t17.5 -30q0 -8 -6 -16q-78 -98 -305 -541q-209 -406 -230 -469q-10 -23 -39 -22q-51 0 -51 41z" />
<glyph unicode="0" horiz-adv-x="851" d="M94 315q0 154 89 256.5t233 102.5q162 0 254 -87t92 -251q0 -160 -84 -257t-236 -97q-166 0 -257 86t-91 247zM176 315q0 -121 70.5 -186.5t195.5 -65.5q117 0 178.5 74t61.5 199q0 123 -71.5 190.5t-194.5 67.5q-111 0 -175.5 -79t-64.5 -200z" />
<glyph unicode="1" d="M86 621q0 23 25.5 23.5t97.5 8.5q59 6 72 4q14 -2 16 -20t-10 -25q-29 -14 -29 -32q-10 -45 -8 -250q2 -199 10 -246q4 -25 53 -43q12 -4 13 -23q0 -25 -27 -24q-121 0 -166 4q-14 2 -14 20q0 16 12 23q29 12 37 48t4 230q-4 190 -12 235.5t-58 41.5q-16 -2 -16 25z" />
<glyph unicode="2" horiz-adv-x="606" d="M59 68q31 199 283 268q117 33 117 139q0 20 -4 47q-8 47 -55.5 74t-104.5 20q-90 -8 -129 -102q-8 -18 -37 -18q-37 0 -37 30q0 61 70 111q61 43 127 47q223 15 250 -192q8 -70 -39 -130q-51 -68 -152 -90q-174 -39 -207 -172q-8 -31 23 -32q51 -4 151 0q98 4 113.5 8 t26 21.5t10.5 23.5q0 16 20 16q29 0 29 -22q0 -47 4 -68q2 -23 -4 -35q-8 -18 -37 -14q-31 4 -188 4q-150 -2 -187 -4q-31 -2 -40 14.5t-3 55.5z" />
<glyph unicode="3" horiz-adv-x="772" d="M-63 -377q0 33 40 33q27 0 41 -18q100 -94 261 -95q156 0 237.5 88t81.5 248q0 156 -121 242q-106 78 -284 86q-41 2 -41 37q0 49 53 35q41 -10 119 -11q186 18 186 174q0 27 -8 56q-33 125 -193 118q-72 -2 -110 -49q-18 -20 -45 -82q-8 -20 -41 -20q-45 0 -45 37 q0 72 82 131q74 53 151 59q272 18 301 -233q6 -51 -22 -109q-29 -63 -86 -106q-12 -8 -13 -17q0 -8 25 -22q172 -101 172 -326q0 -197 -102.5 -306.5t-296.5 -109.5q-190 0 -316 115q-27 25 -26 45z" />
<glyph unicode="4" horiz-adv-x="940" d="M49 27q0 18 25 47q106 119 186 213q174 207 305 395q16 23 43 23q55 0 45 -68q-10 -63 -6 -512q0 -53 53 -51q63 2 142 2q41 0 41 -45q0 -35 -31 -35q2 0 -51 0q-53 2 -103 2q-23 4 -37 -12.5t-14 -55.5l4 -438q-2 -43 -55 -43q-41 0 -37 45q10 94 10 453q0 29 -4 37 q-10 18 -51 18q-313 6 -414 -2q-51 -4 -51 27zM178 92q0 -18 45 -22h285q35 0 41 2q20 10 20 57q-6 336 -11 367.5t-13 31.5q-10 0 -27 -28q-25 -39 -164 -205q-135 -158 -161 -180q-14 -12 -15 -23z" />
<glyph unicode="5" horiz-adv-x="772" d="M-74 -340q0 31 35 31q27 0 43 -21q113 -133 275 -133q319 0 319 342q0 305 -405 328q-43 2 -43 26q0 6 4 20.5t4 22.5q12 170 -43 306q-8 18 -9 32q0 43 52 39q39 -2 188 -4q156 0 186 4q29 4 37 -16q6 -12 4 -35q-4 -35 -14 -84q-4 -18 -39 -18q-41 0 -35 18q2 8 2 17 q0 35 -30 45q-37 10 -238 2q-20 0 -22 -4q-6 -4 0 -27q39 -127 26 -232q-4 -41 45 -45q172 -16 285 -114q125 -109 125 -281q0 -197 -102.5 -306.5t-296.5 -109.5q-213 0 -330 148q-23 29 -23 49z" />
<glyph unicode="6" horiz-adv-x="851" d="M86 436q0 334 197 557q176 199 395 181q39 -4 39 -33t-39 -29q-213 0 -334 -158q-139 -182 -133 -311q-4 -25 14 -25q10 0 23 9q76 47 168 47q141 0 239 -86q107 -94 107 -252q0 -324 -320 -354q-147 -14 -241 84q-86 90 -107 249q-8 59 -8 121zM172 375q0 -27 4 -60 q18 -117 92 -190.5t174 -61.5q240 31 240 273q0 121 -82 192.5t-184 65.5q-244 -14 -244 -219z" />
<glyph unicode="7" horiz-adv-x="800" d="M135 621q0 33 31 32q8 0 33.5 -4t40.5 -4q315 -4 411 10q51 6 51 -22q0 -8 -9 -12.5t-52 -106.5q-47 -117 -76 -215q-6 -23 -4 -35q6 -18 27 -16q20 0 43 2q41 4 41 -27q0 -27 -39 -26h-53q-43 0 -56 -47q-57 -203 -137 -664q-8 -43 -43 -43q-45 0 -41 45q14 215 139 657 q14 51 -32 52h-39q-16 0 -24.5 7t-8.5 17q0 31 39 29h45q47 -2 63 55q20 68 58 178q31 90 30 90q-6 6 -141 7q-125 -2 -166 -5q-55 -4 -53 -52t-31 -48t-32.5 32t-7 67.5t-7.5 46.5z" />
<glyph unicode="8" horiz-adv-x="851" d="M80 295q0 201 141 295q39 27 39 33q0 8 -8 14q-80 68 -80 174q0 115 59 186q66 80 187 80t191.5 -68.5t70.5 -177.5q0 -115 -86 -194q-12 -10 -12 -19q0 -12 49 -36q141 -98 141 -260q0 -164 -86 -255.5t-248 -91.5q-154 0 -256 88.5t-102 231.5zM162 295 q0 -111 78.5 -175.5t197.5 -64.5q254 1 254 267q0 240 -274 239q-123 0 -189.5 -71.5t-66.5 -194.5zM252 813q0 -68 43 -113t117 -53q188 0 188 184q0 70 -50 119t-132 49q-78 0 -125 -61q-41 -53 -41 -125z" />
<glyph unicode="9" horiz-adv-x="851" d="M88 309q0 324 320 355q147 14 241 -84q87 -90 107 -250q8 -59 8 -121q0 -334 -197 -557q-176 -199 -395 -180q-39 4 -39 32q0 29 39 29q213 0 333 156.5t126 298.5q6 37 -13 37q-6 0 -16 -7q-76 -47 -168 -47q-141 0 -239 86q-106 94 -107 252zM168 309q0 -121 82 -192.5 t184 -65.5q98 6 164 62q78 63 78 180q0 121 -72 205q-77 88 -196 84q-240 -10 -240 -273z" />
<glyph unicode=":" horiz-adv-x="360" d="M100 43q0 76 62 82q33 6 56.5 -10.5t25.5 -51.5q4 -72 -62 -81q-33 -4 -57.5 12t-24.5 49zM100 553q0 72 62 82q33 6 56.5 -11.5t25.5 -50.5q4 -70 -62 -81q-33 -6 -57.5 10t-24.5 51z" />
<glyph unicode=";" horiz-adv-x="360" d="M100 43q0 76 62 82q67 15 94 -51q14 -33 14 -70q0 -125 -125 -164q-29 -8 -28 19q0 16 16 20q57 16 57 64q0 29 -45 42t-45 58zM100 553q0 72 62 82q33 6 56.5 -11.5t25.5 -50.5q4 -70 -62 -81q-33 -6 -57.5 10t-24.5 51z" />
<glyph unicode="&#x3c;" horiz-adv-x="768" d="M184 313q0 23 21 43q150 143 340 332q12 14 30 14q45 0 46 -45q0 -18 -19 -36q-117 -111 -313 -302q131 -127 313 -305q20 -20 21 -43q0 -43 -39 -43q-18 0 -33 17q-33 35 -346 334q-20 10 -21 34z" />
<glyph unicode="=" horiz-adv-x="503" d="M59 287q0 43 58 43q208 -2 245 0q43 4 44 -43q0 -43 -50 -41q-143 4 -252 2q-45 0 -45 39zM59 471q0 43 58 43q208 -2 245 0q43 4 44 -43q0 -43 -50 -41q-143 4 -252 2q-45 0 -45 39z" />
<glyph unicode="&#x3e;" horiz-adv-x="768" d="M207 -29q0 23 20 43q121 115 314 305q-135 129 -314 302q-18 16 -18 36q0 45 49 45q16 0 29 -14q139 -135 340 -332q18 -18 18 -41q0 -24 -18 -36l-348 -334q-14 -14 -31 -15q-41 0 -41 41z" />
<glyph unicode="?" horiz-adv-x="763" d="M111 373q-2 102 77 178q70 66 170 82q201 35 201 235q0 123 -71.5 189.5t-194.5 66.5q-59 0 -60 31q0 18 18.5 34.5t41.5 16.5q160 0 253 -88t93 -250q0 -141 -92 -229q-72 -68 -176 -86q-78 -14 -128 -60.5t-46 -101.5q8 -113 116 -112q78 0 121 94q10 20 31 20 q45 0 35 -47q-23 -111 -135 -143q-31 -8 -62 -8q-78 0 -134 49t-58 129zM223 43q0 76 62 82q33 6 56.5 -10.5t25.5 -51.5q4 -72 -62 -81q-33 -4 -57.5 12t-24.5 49z" />
<glyph unicode="@" horiz-adv-x="851" d="M94 330q0 150 105.5 258t251.5 108q311 0 311 -346q0 -164 -111 -266q-45 -43 -90 -43q-74 0 -84 82q-2 23 -63 22q-162 0 -162 187q0 82 56.5 141t133.5 59q43 0 74 -18q18 -12 37 -25q14 -6 29.5 3.5t23.5 9.5q16 0 27.5 -15.5t5.5 -23.5q-94 -119 -94 -311 q0 -27 20 -27t41 22q76 80 76 203q0 266 -231 266q-113 0 -194 -85t-81 -201q0 -139 45 -207q53 -84 187 -84q35 0 34 -33q0 -25 -34 -24q-313 0 -314 348zM324 330q0 -104 96 -111q25 -2 38 11.5t21 76.5q4 31 19.5 65t15.5 38q6 18 -17.5 35.5t-54.5 19.5q-53 2 -85.5 -41 t-32.5 -94z" />
<glyph unicode="A" horiz-adv-x="1142" d="M43 49q20 10 51 43q258 518 539 1090q8 20 26 20q12 0 21 -14q2 -4 170 -483q172 -496 233 -621q10 -22 45 -51q11 -13 11 -21q0 -12 -25 -12q-135 0 -149.5 2t-14.5 18q0 18 13 23q29 15 29 41q0 8 -3 16q-2 8 -112 322q-14 41 -37 39q-95 2 -207.5 2t-243.5 -2 q-33 0 -49 -23q-139 -270 -160 -336q-3 -11 -3 -19q0 -28 34 -38q12 -4 12 -20q0 -20 -14 -23h-150q-26 0 -26 20q0 15 10 27zM391 537q-4 -7 -4 -11q1 -12 25 -12q34 0 206 -2q70 -1 120.5 -1t82.5 1q17 0 17 13q0 4 -2 10q-162 457 -172 466q-9 11 -16 11t-13 -8 q-20 -31 -244 -467z" />
<glyph unicode="B" horiz-adv-x="929" d="M125 12q-2 8 -2 13q0 12 8 16q29 12 37 48q5 24 5 238q0 107 -1 261q-4 457 -12 502q-4 18 -19.5 30.5t-15.5 24.5q0 41 37 33q29 -6 65 -7q37 0 118 9.5t118 9.5q317 0 317 -289q0 -156 -155 -233q102 -45 172 -133q75 -99 75 -205q0 -326 -311 -348q-33 -2 -63 -2 q-47 0 -123 8t-123 8q-49 0 -107 -6q-14 -2 -20 22zM246 569q0 -397 14 -448q6 -20 10 -29q12 -18 29 -22q10 0 70.5 -9.5t138.5 -9.5q283 0 283 279q0 123 -91 205q-78 72 -186 88q-60 9 -117 9t-112 -9q-39 -6 -39 -54zM246 735q0 -39 41 -43q16 0 73 -2h29q313 0 313 211 q0 221 -239 221q-47 0 -162 -28q-43 -10 -43 -64q-10 -37 -12 -295z" />
<glyph unicode="C" horiz-adv-x="1339" d="M133 598q0 289 147.5 444.5t421.5 155.5q297 0 474 -176q33 -33 32 -66q0 -47 -49 -118q-8 -14 -29 -15q-31 0 -30 25q0 8 8 24.5t8 30.5q0 31 -41 76q-37 39 -121 82q-127 63 -256 63q-477 0 -477 -526q0 -238 144 -393q145 -162 370 -162q193 0 303 57q47 25 99 82 q10 12 24 13q33 0 33 -33q0 -11 -8 -21q-33 -57 -119 -104q-133 -76 -332 -76q-264 0 -433 181.5t-169 455.5z" />
<glyph unicode="D" horiz-adv-x="1112" d="M88 25q0 20 14 34q14 0 31 25q8 45 12 487q1 149 1 252q0 207 -5 231q-8 38 -32 60q-12 10 -15 35q-2 25 12 27q173 24 311 24h11q266 0 435 -175.5t169 -449.5q0 -289 -148.5 -450.5t-420.5 -161.5q-240 0 -354 35q-20 6 -21 27zM223 559q-1 -113 -1 -199q0 -260 9 -286 q8 -27 232 -27q231 0 356 135t125 381q0 238 -144.5 396.5t-371.5 158.5q-86 0 -106 -4q-12 -2 -68 -24q-8 -2 -17.5 -53.5t-13.5 -477.5z" />
<glyph unicode="E" horiz-adv-x="860" d="M115 1163q3 22 14 22q2 0 4 -1q59 -12 225 -12q100 0 238 4q20 0 47 4t35 4q23 0 22 -35q0 -10 -6 -45t-6 -66.5t-33 -31.5t-30 45q2 29 -10.5 39t-47.5 14q-141 16 -215 16q-88 0 -96 -22.5t-8 -388.5q0 -25 26 -27q88 -5 145 -5q86 0 105 11q20 12 21.5 33.5t21.5 21.5 q29 0 33 -32q2 -16 0 -54q-4 -45 -4 -43q4 -35 -29 -34q-27 0 -30 26q2 6 -19 27q-19 11 -92 11q-58 0 -150 -7q-29 -2 -28 -33q0 -465 12 -520q4 -20 162 -21q164 0 242 11q45 6 47 6q12 6 10 33q-2 45 31 45t32 -31q0 -18 4 -61v-12q0 -17 -4 -27q-12 -33 -24 -33 q-4 0 -24.5 4t-41.5 4q-166 7 -287 7q-188 0 -266 -17q-2 -1 -4 -1q-11 0 -14 21q-4 23 8 29q29 12 37 48q5 24 5 238q0 107 -1 261q-4 457 -12 502q-6 31 -37 45q-9 4 -9 18q0 4 1 10z" />
<glyph unicode="F" horiz-adv-x="860" d="M115 16q0 20 14 33q14 6 33 33q8 43 12 506v170q0 305 -6 336q-8 33 -37 45q-12 6 -8 28q3 22 14 22q2 0 4 -1q63 -15 247 -15q125 0 306 7q20 0 47 4t33 4q23 0 23 -33q0 -12 -6.5 -47t-6.5 -66.5t-32 -31.5q-33 0 -31 45q2 29 -10.5 39t-46.5 14q-70 10 -230 10 q-170 0 -174 -22q-6 -31 -10 -402q6 -10 24 -12q92 -4 152 -4q97 0 115 10q23 12 23.5 33.5t21.5 21.5q27 0 30 -32q-2 -41 -2 -97q4 -35 -28 -34q-27 0 -31 26q2 6 -20 27q-12 8 -105 8q-22 1 -43 1q-63 0 -111 -5q-27 -2 -27.5 -25.5t-4.5 -169.5q-2 -127 -2 -202 q4 -109 16 -160q0 -8 16.5 -21.5t42 -11.5t25.5 -29q0 -14 -12 -16q-41 1 -89.5 1t-105.5 -1h-4q-16 0 -16 14z" />
<glyph unicode="G" horiz-adv-x="1339" d="M133 598q0 274 176 444q164 156 393 156q180 0 328 -53q106 -39 147.5 -80t41.5 -86q0 -53 -48 -123q-10 -14 -28 -14q-31 0 -31 22q0 6 8 22.5t8 33.5q0 47 -49 98q-27 29 -123 61q-125 45 -258 45q-201 0 -338 -141q-147 -150 -147 -385q0 -236 147.5 -395.5 t374.5 -159.5q250 0 359 94q23 20 22 51l4 229q0 38 -123 38q-51 0 -125 -6q-23 0 -22 38q0 29 22 27q102 2 205 4q134 -2 134 -41q0 -3 -1 -6q-6 -29 -24 -428q-16 -414 -31 -502q-6 -41 -41 -41q-18 0 -18 25q0 6 2 16q18 74 18 301q0 81 -2 183q-6 27 -18 26q-6 0 -13 -6 q-139 -84 -348 -84q-264 0 -433 181.5t-169 455.5z" />
<glyph unicode="H" horiz-adv-x="1036" d="M109 1163q0 16 20 15q59 2 143 2q16 -4 17 -25q0 -16 -12.5 -21.5t-28.5 -25.5q-8 -37 -8 -428q0 -31 26 -31h504q31 0 33 23q-4 385 -12 426q-2 14 -13 20l-18 12q-10 12 -10 27q0 23 26 21q55 2 133 2q16 -4 17 -25q0 -16 -11.5 -21.5t-27.5 -25.5q-8 -36 -8 -372v-146 q2 -469 10 -514q4 -27 43 -33q12 0 12 -18q0 -27 -26 -27h-152q-14 2 -14 20q0 16 15 23.5t22.5 13.5t11.5 23q5 22 5 228q0 103 -1 251q0 33 -29 39q-114 4 -241 4t-267 -4q-29 0 -28 -27q4 -451 12 -493q0 -4 29 -33q10 -8 10 -25q0 -20 -25 -20h-139q-14 2 -14 20 q0 16 15 23.5t22.5 13.5t11.5 23q5 26 5 244q0 109 -1 266q-4 465 -12 510q-2 14 -13 20l-18 12q-14 14 -14 33z" />
<glyph unicode="I" d="M115 1163q0 16 20 15q61 2 146 2q16 -4 16 -25q0 -16 -10 -20q-29 -16 -29 -35q-8 -38 -8 -367v-143q2 -459 10 -506q2 -8 29 -41q10 -8 10 -25q0 -20 -25 -20h-141q-14 2 -14 20q0 16 12 23q29 12 37 48q5 24 5 238q0 107 -1 261q-4 457 -12 502q-2 12 -31 40 q-14 14 -14 33z" />
<glyph unicode="J" d="M84 -532q0 8 6 14q108 87 108 340q0 22 -1 45q-6 588 -21 1231q-6 33 -33 35q-18 2 -18 24q0 23 25 21q61 2 145 2q14 -2 18 -21q1 -5 1 -8q0 -10 -9 -10q-23 0 -33 -41q-10 -42 -10 -411v-132q0 -502 12 -666q2 -37 2 -71q0 -258 -155 -361q-12 -8 -21 -8q-16 0 -16 17z " />
<glyph unicode="K" horiz-adv-x="1011" d="M100 1163q0 16 21 15q70 2 160 2q16 -4 16 -25q0 -16 -10 -20q-29 -16 -29 -35q-8 -38 -8 -367v-143q2 -459 10 -506q4 -25 47 -41q12 -2 12 -20q0 -25 -26 -25h-160q-14 2 -14 20q0 16 12 23q29 12 37 48q5 24 5 240q0 108 -1 263q-4 461 -12 506q-2 14 -22.5 22 t-22.5 10q-14 16 -15 33zM279 643q25 12 237 231q203 209 227 240q1 20 5 41q3 19 41 19h8q47 0 116 -3q14 -2 15 -20q-1 -17 -13 -23q-43 -18 -112 -55q-25 -16 -199 -205q-193 -207 -207 -221q-14 -6 -14 -20q0 -10 6 -21q18 -31 234 -268q225 -252 264 -275.5t39 -46.5 q0 -16 -19 -16q-162 0 -166 2q-18 12 -18 23q0 4 2 13t2 17q0 18 -10 39q-20 41 -198.5 253t-229.5 249q-23 17 -23 29q0 10 13 18z" />
<glyph unicode="L" horiz-adv-x="860" d="M115 1163q0 16 20 15q61 2 146 2q16 -4 16 -25q0 -16 -10 -20q-29 -16 -29 -35q-8 -38 -8 -367v-143q2 -461 10 -506q4 -20 160 -21q164 0 244 11q37 4 48 13t9 38v5q0 42 31 42q32 0 33 -36q-1 -30 5 -63q6 -36 7 -46q0 -35 -23 -35q-6 0 -31.5 5t-48.5 5q-166 7 -287 7 q-188 0 -266 -17q-2 -1 -4 -1q-11 0 -14 21q-4 23 8 29q29 12 37 48q5 24 5 238q0 107 -1 261q-4 457 -12 502q-2 12 -31 40q-14 14 -14 33z" />
<glyph unicode="M" horiz-adv-x="1349" d="M63 16q0 16 13.5 24.5t40.5 39.5q63 125 196 618q133 485 133 486q8 14 21 14q18 0 27 -20q61 -250 174 -656q4 -10 14 -8t14 18q57 100 164 383q49 133 101 269q8 14 20 14q16 0 25 -20q12 -33 88 -537q84 -549 84 -553q2 -14 24.5 -28.5t24.5 -16.5q10 -8 10 -25 q0 -20 -25 -20h-131q-14 2 -14 18t13.5 25.5t11.5 56.5q-4 86 -58 461q-55 369 -63 383q-12 20 -31 -2q-84 -219 -242 -565q-12 -23 -34 -23q-20 0 -27 29q-76 281 -158 565q-14 23 -30 4q-8 -10 -119 -418q-57 -221 -117 -440q-8 -29 29 -49q12 -4 10 -25q-2 -18 -16.5 -20 t-147.5 -2q-25 0 -25 20z" />
<glyph unicode="N" horiz-adv-x="1042" d="M115 1163q0 16 20 15q28 -2 52 -2l63 4q25 0 291 -500q268 -504 305 -504q4 0 6 6q7 26 7 246q0 88 -1 207q-6 408 -14 455q-2 12 -31 40q-14 14 -14 33q0 16 20 15q61 2 146 2q16 -4 16 -25q0 -16 -10 -20q-25 -12 -29 -35q-12 -55 -14 -498v-89q0 -385 16 -499 q2 -18 -12 -35.5t-33 -17.5q-16 0 -31 12q-31 27 -293 502q-268 485 -290 512q-14 18 -23 19q-4 0 -8 -41q-10 -90 -10 -308q0 -481 16 -573q2 -8 29 -41q10 -8 10 -25q0 -20 -25 -20h-141q-14 2 -14 20q0 16 12 23q29 12 37 48q5 24 5 238q0 107 -1 261q-4 457 -12 502 q-2 12 -31 40q-14 14 -14 33z" />
<glyph unicode="O" horiz-adv-x="1288" d="M104 561q0 266 154 451.5t389 185.5q254 0 390.5 -156.5t136.5 -443.5q0 -274 -157 -455.5t-403 -181.5q-510 0 -510 600zM186 561q0 -518 428 -518q211 0 344.5 158.5t133.5 396.5q0 246 -116 382t-329 136q-203 0 -332 -162.5t-129 -392.5z" />
<glyph unicode="P" horiz-adv-x="929" d="M119 18q0 16 12 23q29 12 37 48q5 24 5 238q0 107 -1 261q-4 457 -12 502q-4 18 -19.5 30.5t-15.5 24.5q0 41 37 33q33 -6 86 -7q45 0 140 6.5t132 6.5q162 0 259.5 -92t97.5 -254q0 -160 -101.5 -264.5t-255.5 -104.5q-170 0 -241 123q-4 8 -5 16q0 29 23 29q8 0 18 -10 q74 -76 205 -76q121 0 199 82t78 205t-77 196.5t-200 73.5q-162 0 -219 -14q-43 -10 -43 -64q-12 -49 -12 -469q0 -424 14 -477q4 -14 21 -25q25 -14 26 -16q20 -16 21 -33q0 -12 -19 -12h-176q-14 2 -14 20z" />
<glyph unicode="Q" horiz-adv-x="1271" d="M104 561q0 266 154 451.5t389 185.5q254 0 390.5 -156.5t136.5 -443.5q0 -207 -92.5 -365.5t-250.5 -226.5q-25 -10 0 -55q68 -119 232 -184q221 -88 453 -89q143 0 288 35q31 6 31 -14q0 -15 -23 -21q-160 -45 -337 -45q-223 0 -443 72q-168 55 -293 232q-23 33 -45 30 q-27 -6 -80 -6q-510 0 -510 600zM186 561q0 -518 428 -518q211 0 344.5 158.5t133.5 396.5q0 246 -116 382t-329 136q-203 0 -332 -162.5t-129 -392.5z" />
<glyph unicode="R" horiz-adv-x="929" d="M119 18q0 16 12 23q29 12 37 48q5 24 5 238q0 107 -1 261q-4 457 -12 502q-4 18 -19.5 30.5t-15.5 24.5q0 41 37 33q31 -6 82 -7q49 0 148.5 7.5t131.5 7.5q145 0 231.5 -82.5t86.5 -229.5q0 -117 -64.5 -203.5t-169.5 -115.5q-27 -6 -26 -33q0 -37 86 -237 q86 -207 114 -224q37 -23 37 -45q0 -16 -18 -16q-160 0 -164 2q-12 8 -12 16t16 31t16 41q0 12 -6 25q-47 141 -162 401q-20 29 -51 39q-39 12 -82 43q-55 39 -55 72q0 27 23 26q8 0 16 -8q62 -65 180 -65h4q106 0 171 70.5t65 180.5q0 111 -63.5 175.5t-172.5 64.5 q-141 0 -223 -20q-43 -10 -43 -64q-12 -49 -12 -469q0 -424 14 -477q4 -14 21 -25q25 -14 26 -16q20 -16 21 -33q0 -12 -19 -12h-176q-14 2 -14 20z" />
<glyph unicode="S" horiz-adv-x="831" d="M41 18q0 10 21.5 65.5t21.5 96.5t31 41q25 0 35 -45q10 -53 43 -74q53 -37 208 -49q12 -1 24 -1q114 0 198 87q84 88 84 196v5q-4 217 -211 268q-170 43 -234 82q-112 69 -112 203q0 111 73 192q86 94 221 95q195 0 287 -101q10 -10 10 -18t-28 -33q-35 -29 -51 -65 q-14 -20 -33 -21q-39 0 -31 33q6 18 6 35q0 94 -155 98h-6q-73 0 -140 -51q-78 -59 -78 -148q0 -43 19 -88q25 -57 116 -92q10 -4 164 -45q267 -72 271 -332v-6q1 -158 -107 -262q-110 -106 -270 -107q-82 0 -172 27q-47 12 -94 27q-25 2 -39.5 -19.5t-28.5 -21.5 q-43 0 -43 28z" />
<glyph unicode="T" horiz-adv-x="980" d="M27 1040q0 33 6 68t6 47q0 33 22 33q8 0 35 -4t47 -4q117 -4 359 -4t358 4q20 0 47 4t35 4q23 0 23 -33q0 -12 -7.5 -47t-7.5 -66.5t-30 -31.5q-31 0 -31 48q0 42 -58 50q-68 10 -172 10q-119 0 -124 -22q-8 -45 -11 -506v-143q0 -329 8 -367q4 -23 29 -33q12 -6 10 -24 t-16 -21q-28 1 -64 1t-81 -1h-4q-16 0 -17 14q0 20 13.5 31.5t31.5 42.5q8 43 12 502q1 154 1 262q0 214 -5 240q-6 24 -114 24h-9h-34q-65 0 -109 -6q-72 -10 -86 -56t-39 -46t-24 30z" />
<glyph unicode="U" horiz-adv-x="1036" d="M115 1163q0 16 20 15q61 2 146 2q16 -4 16 -25q0 -16 -10 -20q-29 -16 -29 -35q-6 -29 -8 -193q0 -115 2 -323q2 -229 2 -254q0 -123 79 -195t206 -72q119 0 196.5 82t77.5 205q2 14 2 76q0 135 -9 382t-15 282q-2 12 -31 40q-14 16 -15 33q0 16 21 15q61 2 147 2 q14 -2 17 -23q0 -16 -10 -22q-25 -12 -31 -35q-5 -25 -5 -157q0 -66 1 -159q8 -401 8 -434q0 -158 -100.5 -263t-253.5 -105q-166 0 -265.5 93t-99.5 255q0 680 -14 760q-2 12 -31 40q-14 14 -14 33z" />
<glyph unicode="V" horiz-adv-x="1142" d="M20 1153q0 23 25 23q104 0 127 -2q14 -2 14 -19q0 -16 -12 -25q-20 -14 -8 -57q20 -68 194 -489q172 -414 183 -428q12 -18 28 0q10 14 202 449t202 470q14 51 -1.5 56.5t-15.5 23.5t15 21h127q24 0 24 -19t-10 -29q-16 -6 -43 -36q-242 -537 -500 -1104q-8 -14 -20 -15 q-18 0 -27 21q-18 49 -444 1089q-6 12 -23 27q-27 18 -26 18q-10 8 -11 25z" />
<glyph unicode="W" horiz-adv-x="1531" d="M20 1153q0 23 25 23q104 0 127 -2q14 -2 14 -19q0 -16 -12 -25q-20 -14 -8 -57q20 -68 194 -489q172 -414 183 -428q16 -25 35 -2q8 8 153 262q16 26 16 50q0 17 -8 32q-35 100 -80 227q-4 12 -22 25q-25 16 -27 18q-10 10 -10 27q0 20 25 20q113 0 127 -2t14 -18 t-12 -25q-18 -12 -9 -55q12 -39 46 -140q4 -16 12 -16q6 0 16 14q31 59 66 132q14 47 -1.5 54t-15.5 23q0 18 14.5 20.5t127.5 2.5q25 0 24 -21q0 -16 -10 -26q-16 -6 -43 -39q-23 -47 -129 -238q-11 -19 -11 -43q0 -19 7 -39q78 -236 86 -243q12 -20 29 0q10 14 201.5 449 t201.5 470q14 49 -1 56.5t-15 23.5q0 18 14 21h127q25 0 25 -21q-1 -17 -11 -27q-16 -6 -43 -36q-242 -537 -501 -1104q-8 -14 -21 -15q-18 0 -27 21q-2 4 -112 325q-10 29 -19 29q-10 0 -18 -24l-193 -336q-10 -14 -20 -15q-18 0 -27 21q-18 49 -444 1089q-6 12 -23 27 q-27 18 -26 18q-10 8 -11 25z" />
<glyph unicode="X" horiz-adv-x="1073" d="M55 10q-1 4 -1 8q0 8 5 15q170 223 455 573q12 14 0 33q-127 217 -276 457q-12 14 -32 19t-24 9q-10 10 -10 27q0 20 25 20q113 0 127 -2t14 -18q0 -14 -12 -23q-4 -2 -4 -12q0 -41 92 -205q76 -135 141 -227q18 -25 35 0q80 80 184 236q74 113 94 151q7 16 7 38 q0 15 -3 32q-6 31 17 33h106q23 0 23 -15q0 -16 -16.5 -29.5t-159.5 -209.5q-160 -217 -226 -291q-14 -14 2 -37q158 -246 334 -514q27 -16 64 -45q12 -10 12 -23q0 -12 -22 -12q-88 0 -138 4q-25 4 0 43q0 14 -10 51q-12 27 -125 207q-117 190 -164 256q-4 6 -10 6 q-10 0 -29 -20q-74 -82 -188 -244q-123 -172 -125 -207t-2 -31q4 -14 39 -20q12 -2 12 -20t-14 -21q-31 -4 -166 -4q-25 0 -31 12z" />
<glyph unicode="Y" horiz-adv-x="944" d="M29 1155q2 20 24 21q127 0 150 -2q14 -2 14 -19q0 -16 -12 -25q-20 -14 -8 -57q18 -63 129 -282q100 -199 116 -220q16 -31 41 -4q14 16 134 245.5t131 262.5q14 49 -1.5 56.5t-15.5 23.5q0 18 14 21h127q25 0 25 -21q0 -17 -10 -27q-16 -6 -45 -36q-100 -205 -314 -588 q-25 -45 -24 -109q0 -217 10 -305q4 -18 31 -41q10 -12 10 -29q-2 -18 -25 -18h-143q-14 2 -14 21q2 16 14 22q29 12 35 45t6 111.5t-6 201.5q-2 35 -4 50q-6 27 -21 55q-143 262 -307 575q-6 14 -24 27q-25 16 -27 18q-10 10 -10 27z" />
<glyph unicode="Z" horiz-adv-x="1021" d="M37 23q0 23 21.5 36t374.5 519q340 487 340 520q0 1 -1 2q-6 6 -207 8q-96 1 -154 1t-77 -1q-61 -4 -60 -66q2 -45 -30 -45q-33 0 -33 32t-7 68t-7 46q0 33 30 33q8 0 34 -4.5t40 -4.5q97 -1 178 -1q304 0 387 12q6 1 11 1q32 0 32 -32q0 -14 -12 -18.5t-346 -505.5 q-338 -508 -344 -514q-37 -31 0 -35q14 -4 289 -4q281 0 314.5 4t45.5 13t10 38v5q0 42 31 42q33 0 33 -31.5t6 -67.5t6 -46q0 -35 -22 -35q-6 0 -34 5t-48 5q-68 3 -236 3q-84 0 -192 -1q-295 -2 -344 -4q-29 -2 -29 23z" />
<glyph unicode="[" d="M111 1077q0 27 26 27q10 0 31.5 -4t34.5 -4q39 -2 86 2q45 4 45 -39q0 -33 -49 -33q-14 0 -33 2h-25q-39 10 -43 -147q2 82 2 -199q0 -571 21 -711q6 -37 33 -32h24q20 2 33 2q35 0 35 -33q0 -39 -33 -39q-109 0 -84 2q-14 -2 -39.5 -8t-36.5 -6q-27 0 -26 43q0 16 2 37 q12 96 10 546q0 408 -8 561q-6 20 -6 33z" />
<glyph unicode="\" horiz-adv-x="772" d="M59 956q0 16 18.5 29.5t37.5 13.5q29 0 37 -26q14 -43 237 -467q232 -443 291 -529q10 -14 10 -28q0 -41 -51 -41q-29 0 -39 22q-20 63 -229 469q-227 442 -305 541q-6 8 -7 16z" />
<glyph unicode="]" d="M66 1059q0 43 45 39q47 -4 86 -2q12 0 33.5 4t31.5 4q27 0 27 -27q0 -12 -6 -33q-8 -154 -9 -561q-1 -450 11 -546q2 -20 2 -37q0 -43 -27 -43q-10 0 -35.5 6t-40.5 8q25 -2 -84 -2q-33 0 -32 39q0 33 34 33q12 0 33 -2h25q27 -4 33 32q20 139 20 711q0 281 2 199 q-4 158 -43 147h-25q-18 -2 -32 -2q-49 0 -49 33z" />
<glyph unicode="^" horiz-adv-x="800" d="M129 821q0 10 6 17q90 86 201 198q16 20 33 21q20 0 43 -31q80 -82 174 -180q12 -14 12 -31q0 -43 -41 -43q-20 0 -39 25q-29 39 -84 97t-67 60q-18 0 -86 -73q-59 -66 -71.5 -85.5t-31.5 -19.5q-18 0 -33.5 14.5t-15.5 30.5z" />
<glyph unicode="_" horiz-adv-x="645" d="M-23 -186h685v-88h-685v88z" />
<glyph unicode="`" horiz-adv-x="557" d="M168 979q0 23 18.5 40t38.5 17q29 0 43 -30q41 -89 107 -97q27 -4 26 -39q0 -39 -49 -28q-45 10 -97 41.5t-73 58.5q-14 18 -14 37z" />
<glyph unicode="a" horiz-adv-x="757" d="M92 123q20 158 187 196q23 6 114 13q66 6 68 20q12 78 12 115q0 47 -29 80q-45 51 -88 51q-29 0 -54.5 -19.5t-47.5 -37.5q-12 -8 -23 -9q-31 0 -30 29q0 10 6 21q18 29 22 34q14 14 50 31q47 23 90 23q88 0 155 -103q23 -35 23 -88q0 -27 -8.5 -94.5t-8.5 -110.5 q-2 -113 -4 -113v1q6 -74 43 -99q23 -14 45 -14q35 0 60 35q6 10 18 10q31 0 31 -31q0 -12 -8 -22q-41 -55 -107 -55q-18 0 -39 6q-51 14 -79 45l-27 31q-4 0 -8 -5q-51 -51 -60 -57q-53 -35 -139 -41h-15q-58 0 -100 27q-51 33 -51 102q0 14 2 29zM166 119v-11 q0 -38 26 -58q24 -18 58 -18q9 0 18 1q84 10 154 102q29 37 29 96q-1 19 -7 25q-13 13 -52 13q-36 0 -93 -11q-123 -25 -133 -139z" />
<glyph unicode="b" horiz-adv-x="868" d="M72 1254q0 35 53 44q35 7 53 7h4q31 -2 25 -27q-4 -33 -8 -313q-2 -118 -2 -196q0 -117 4 -146q0 -12 8 -15q8 -4 16 4q82 78 236 82h16q295 0 295 -282q0 -152 -84.5 -258.5t-234.5 -145.5q-80 -22 -161 -22h-7q-74 0 -123 16t-47 37q8 55 8 588q0 537 -8 571 q-4 20 -23.5 30.5t-19.5 25.5zM201 428q-6 -70 -6 -136q0 -94 12 -181q18 -47 115 -48q53 0 116 19q234 72 250 285q2 23 2 43q0 111 -55 163q-52 50 -163 50h-13q-178 -4 -242 -113q-10 -18 -16 -82z" />
<glyph unicode="c" horiz-adv-x="739" d="M86 350q0 154 94 250q84 84 191 84q76 0 129 -12q25 -8 49 -15q12 0 30.5 7.5t26.5 7.5q10 0 20.5 -10.5t14.5 -32.5q0 -16 -2 -49q-2 -42 -2 -56q0 -31 -27 -30q-29 0 -45 41q-34 85 -167 85q-18 0 -38 -2q-80 -6 -135 -71q-63 -74 -63 -197q0 -125 81 -213t201 -88 q61 0 111.5 26.5t52.5 26.5q27 0 27 -28q0 -16 -12 -29q-84 -63 -195 -63q-154 0 -248 104t-94 264z" />
<glyph unicode="d" horiz-adv-x="1011" d="M117 369q0 154 78.5 240.5t232.5 86.5q150 0 258 -102q6 -8 14 -6t9 18q0 561 -7 592q-4 23 -28.5 31t-24.5 24q0 28 56 43q33 8 59 9q35 -2 31 -27q-8 -51 -15 -573q-3 -225 -2 -364q0 -184 4 -214q12 -72 66 -72q43 0 61 29q8 12 23 12q22 0 22 -18q0 -13 -8 -25 q-48 -63 -115 -63q-13 0 -28 2q-63 10 -88 74q-10 27 -31 4q-98 -88 -238 -88q-158 0 -247 112q-82 104 -82 275zM193 369q0 -137 63 -219q68 -92 190 -93q92 0 145.5 30t96.5 103q6 12 10 95q1 27 1 48q0 42 -3 58q-39 231 -262 232q-133 0 -190 -68q-51 -59 -51 -186z" />
<glyph unicode="e" horiz-adv-x="733" d="M80 350q0 154 94 248q82 82 191 86h16q124 0 194 -59q54 -46 54 -108q0 -11 -2 -23q-10 -59 -129 -109q-88 -37 -181 -49q-68 -10 -135 -12q-29 0 -24 -31q18 -106 93 -174t181 -68q66 0 115 29t55 29q29 0 29 -31q0 -16 -15 -33q-84 -63 -196 -63q-154 0 -247 104 t-93 264zM158 412q-1 -3 -1 -6q0 -8 4 -12q5 -8 19 -7q119 6 197 25q152 34 168 100q2 8 2 16q0 37 -47.5 64t-108.5 27q-13 0 -26 -1q-68 -4 -125 -55q-66 -57 -82 -151z" />
<glyph unicode="f" horiz-adv-x="460" d="M109 651q0 23 22 23q43 0 45 37q-1 23 -1 52q0 100 11 269q18 98 66 168q57 84 137 92q21 2 40 2q133 0 171 -104q8 -22 8 -38q0 -25 -20 -34q-12 -4 -23 -4q-27 0 -39 33q-16 47 -28 59q-26 24 -78 24q-11 0 -23 -1q-123 -12 -145 -221q-10 -104 -14 -301 q0 -16 11 -24.5t30 -8.5q23 -1 48 -1t54 1q37 8 37 -27q0 -25 -25 -26q-11 1 -25 1q-37 0 -98 -4q-29 -4 -32 -34q0 -33 4 -322q2 -156 10 -178q12 -33 74 -43q12 -2 12 -21q0 -22 -23 -22h-2h-180q-14 2 -14 20q0 16 12 23q31 14 37 45q4 20 6 219q0 205 -6 242 q-10 53 -34.5 68.5t-24.5 35.5z" />
<glyph unicode="g" horiz-adv-x="638" d="M23 -233q0 74 47 143q41 57 96 92q29 16 -4 41q-88 66 -88 152q0 55 49 104q20 14 0 31q-39 39 -55 127q-2 12 -2 23q0 59 51 122q61 74 153 82q15 1 30 1q124 0 183 -91q6 -10 21 -10q18 0 37.5 16t19.5 37q0 8 -6 21.5t-6 21.5q0 37 39 37q47 0 47 -72q0 -94 -86 -117 q-23 -6 -27 -11t-2 -25q1 -10 1 -21q0 -60 -40 -113q-51 -70 -151 -86q-37 -6 -63 -6q-15 0 -27 2q-53 0 -62 -2q-38 -10 -38 -64q0 -9 1 -20q10 -84 148 -112q84 -12 170 -25q84 -18 124 -79.5t40 -151.5q0 -131 -92.5 -211t-229.5 -80q-174 0 -246 127q-33 57 -32 117z M84 -219q0 -49 35 -100q57 -86 180 -87q104 0 180 66q70 59 70 147q0 70 -39 128.5t-191 58.5q-61 0 -81 -12q-154 -92 -154 -201zM141 475q0 -61 41 -103t101 -42q23 0 43 6q118 31 118 135q0 24 -6 51q-10 43 -57 72q-38 23 -81 23q-10 0 -21 -1q-63 -6 -100.5 -47 t-37.5 -94z" />
<glyph unicode="h" horiz-adv-x="841" d="M84 1253q0 31 57 47q23 6 44 6q8 0 16 -1q37 -6 32 -33v-672q0 -20 29 0q78 78 182 82h13q180 0 198 -213q2 -33 2 -66q0 -68 -14 -153.5t-14 -114.5q0 -25 6 -47q10 -41 39 -41q31 0 47 35q6 12 20 12q29 0 29 -31q0 -27 -31.5 -50t-60.5 -25q-8 -1 -16 -1 q-100 0 -105 99q-1 12 -1 25q0 55 14 135q16 100 16 147q0 31 -4 62q-21 162 -134 162q-11 0 -22 -1q-94 -10 -166 -106q-29 -39 -31 -98q-2 -73 -2 -130q0 -145 11 -198q2 -10 32 -41q10 -8 11 -25q0 -20 -25 -20h-145q-14 2 -15 20q0 16 13 23q31 14 36 45q8 41 9 555 q0 516 -9 551q-6 23 -33.5 34t-27.5 27z" />
<glyph unicode="i" d="M111 629q0 29 59 45q41 10 57 10q33 0 33 -31q0 -8 -2 -20q-8 -36 -8 -204v-73q2 -225 10 -272q2 -8 29 -41q10 -8 10 -25q0 -20 -25 -20h-141q-14 2 -14 20q0 16 12 23q29 12 37 48t8 245q0 203 -8 241q-4 23 -30.5 31t-26.5 23zM147 903q0 57 52 66q9 1 17 2 q49 0 48 -57q0 -53 -51 -62q-9 -1 -17 -1q-49 0 -49 52z" />
<glyph unicode="j" d="M70 -532q0 8 6 14q111 88 111 338q0 23 -1 47q-4 326 -18 698q-4 23 -28.5 36t-24.5 28q-2 29 55 45q33 8 59 8q35 -4 31 -29q-8 -47 -8 -273v-97q2 -268 6 -392q1 -22 1 -43q0 -288 -155 -389q-12 -8 -20 -8q-14 0 -14 17zM147 903q0 57 52 66q9 1 17 1q48 0 48 -56 q0 -53 -51 -62q-9 -1 -17 -1q-49 0 -49 52z" />
<glyph unicode="k" horiz-adv-x="790" d="M119 18q0 16 12 23q29 12 37 48t8 552q0 510 -8 549q-4 20 -23.5 33.5t-19.5 29.5q0 29 51 43q33 8 55 9q33 -2 29 -27q-8 -39 -8 -430v-170q0 -549 8 -594q2 -8 29 -41q10 -8 10 -25q0 -20 -25 -20h-141q-14 2 -14 20zM270 416q-1 3 -1 6q0 9 10 14q29 14 121 85t110 93 l6 39q2 21 40 21h7q47 0 119 -2q14 -2 14 -21q0 -16 -12 -22q-66 -27 -113 -58q-59 -39 -174 -129q-14 -8 -14 -22q0 -8 6 -19q20 -35 137 -168q127 -147 167 -170.5t40 -46.5q0 -16 -18 -16q-162 0 -166 2q-16 8 -17 16q0 -4 15 27q8 20 -10 49q-35 55 -109 148 q-92 115 -139 147q-16 10 -19 27z" />
<glyph unicode="l" d="M115 1253q0 28 55 43q43 12 57 13q35 0 35 -31q0 -10 -4 -25q-10 -37 -10 -440v-145q4 -535 12 -584q2 -8 29 -41q10 -8 10 -25q0 -20 -25 -20h-141q-14 2 -14 20q0 16 12 23q29 12 37 48t8 556q0 514 -8 553q-4 23 -28.5 31t-24.5 24z" />
<glyph unicode="m" horiz-adv-x="1218" d="M96 18q0 16 13 23q31 14 36 45q8 41 9 248q0 205 -9 241q-4 23 -25.5 31t-23.5 23q-2 33 62 49q14 4 27 4t26 -4q31 -10 25 -35q-6 -27 -3 -37q0 -18 23 -4q84 80 188 80q115 0 168 -70q10 -14 33 -2q80 70 176 72h10q179 0 201 -213q4 -45 4 -90q0 -63 -11 -143 t-11 -107q0 -78 45 -78q29 0 43 37q4 12 18 12q27 0 27 -26q0 -11 -6 -21q-18 -29 -31 -39q-18 -16 -45 -18h-14q-105 0 -111 117v15q0 53 12 131q14 89 13 134q0 31 -4 62q-19 161 -144 161h-14q-78 -4 -131 -65q-17 -22 -17 -76v-6q2 -176 9 -385q2 -12 30 -41 q10 -10 11 -25q0 -20 -27 -20h-141q-14 2 -15 20q0 16 13 23q29 12 36 45q10 41 13 170q2 51 2 93q0 63 -4 106q-14 161 -151 161h-5q-115 -2 -172 -104q-27 -45 -27 -113v-62q0 -193 11 -253q2 -14 28 -41q10 -8 10 -25q0 -20 -24 -20h-141q-14 2 -15 20z" />
<glyph unicode="n" horiz-adv-x="841" d="M94 632q0 35 47 46q13 4 27 4q18 0 37 -6q35 -10 28 -35v-41q0 -23 25 -4q88 84 186 86h10q187 0 201 -213q2 -29 2 -58q0 -59 -8 -122q-14 -106 -14 -123q0 -33 8 -60q14 -49 41 -49q16 0 29.5 21.5t27.5 21.5q29 0 29 -26q0 -11 -6 -21q-33 -51 -82 -55h-8 q-44 0 -76 38q-35 42 -37 95v16q-1 54 11 123q14 80 14 121q0 31 -4 64q-22 161 -143 161h-13q-90 -4 -166 -106q-29 -39 -31 -113q-1 -57 -1 -104q0 -154 10 -209q2 -14 28 -41q10 -8 10 -25q0 -20 -24 -20h-141q-14 2 -15 20q0 16 13 23q31 14 36 45q8 41 9 244 q0 203 -9 239q-4 23 -27.5 34t-23.5 29z" />
<glyph unicode="o" horiz-adv-x="851" d="M94 330q0 150 105.5 258t251.5 108q311 0 311 -346q0 -158 -100.5 -263t-253.5 -105q-313 0 -314 348zM176 330q0 -266 232 -267q119 0 196.5 82t77.5 205q0 266 -231 266q-113 0 -194 -85t-81 -201z" />
<glyph unicode="p" horiz-adv-x="862" d="M63 629q-4 33 62 45q21 4 36 4q38 0 42 -25q2 -16 -5.5 -29.5t-4.5 -17.5q8 -16 32 6q82 78 236 82h16q295 0 295 -282q0 -152 -84.5 -258.5t-234.5 -145.5q-81 -22 -162 -22q-26 0 -51 2h-27q-14 -2 -16 -29q-3 -39 -3 -91q0 -70 5 -161q6 -147 11 -166.5t35.5 -35 t30.5 -35.5t-22 -21q-147 0 -170 2q-14 2 -14 21q0 16 12 22q31 14 37 45q6 36 6 348v174q-2 477 -10 514q-4 18 -26.5 29.5t-25.5 24.5zM201 428q-6 -70 -6 -136q0 -95 12 -181q18 -47 115 -48q53 0 116 19q228 70 246 285q1 19 1 37q0 107 -51 160q-57 59 -168 59h-7 q-178 -4 -242 -113q-10 -18 -16 -82z" />
<glyph unicode="q" horiz-adv-x="847" d="M80 324q0 168 80 265t227 105q16 1 32 1q126 0 193 -58q25 -14 41 -14q18 0 33 34q6 14 23 15q31 0 24 -29q-13 -59 -13 -598q0 -134 1 -299q0 -25 20 -25h66q33 2 33 -28q0 -35 -33 -33q-16 4 -62 4q-25 0 -24 -24q0 -129 4 -150v-8q0 -41 -41 -41q-39 0 -37 45v154 q0 25 -24 24h-68q-25 -2 -25 29q0 35 31 33q20 -2 62 -5q25 0 24 25q2 106 2 175q0 103 -4 122q-6 31 -33 10q-90 -70 -215 -71h-6q-148 0 -229 90q-82 92 -82 252zM160 324q4 -270 237 -271q117 0 224 111q12 14 18 162q1 37 1 66q0 88 -9 108q-31 68 -103 100 q-52 24 -112 24q-12 0 -25 -1q-109 -10 -170 -84q-61 -78 -61 -207v-8z" />
<glyph unicode="r" horiz-adv-x="591" d="M94 632q0 35 47 46q13 4 27 4q18 0 37 -6q35 -10 30 -36t11 -26q8 0 18 7q57 49 144 57q10 1 19 1q51 0 81 -29q31 -30 31 -76v-11q-2 -29 -33 -60.5t-57 -31.5q-27 0 -27 29q0 20 18 30q29 16 29 37q0 47 -55 47q-45 0 -100.5 -34.5t-69.5 -75.5q-14 -47 -17 -144v-53 q0 -165 11 -223q2 -14 28 -41q10 -8 10 -25q0 -20 -24 -20h-141q-14 2 -15 20q0 16 13 23q31 14 36 45q8 41 9 244q0 203 -9 239q-4 23 -27.5 34t-23.5 29z" />
<glyph unicode="s" horiz-adv-x="739" d="M142.5 78.5q21.5 46.5 21.5 74t31 27.5q30 0 30 -32q0 -8 -2 -17q-1 -4 -1 -8q0 -64 149 -76q8 -1 15 -1q62 0 103 44q41 41 41 94q2 104 -122 142q-213 61 -213 186q0 63 51 117.5t133 54.5q73 0 105 -14q29 -13 59 -13h8q10 2 27.5 -11t17.5 -28q0 -6 -43 -77 q-10 -16 -25 -17q-37 0 -28 31q6 23 -25 45.5t-88 24.5h-6q-39 0 -72 -23q-41 -27 -41 -72q0 -23 11 -47q23 -53 153 -86q164 -42 174 -200v-15q0 -91 -67 -147q-66 -53 -168 -53q-47 0 -101 14q-27 8 -53 16q-12 0 -35.5 -9t-34.5 -9q-26 0 -26 22q0 16 21.5 62.5z" />
<glyph unicode="t" horiz-adv-x="575" d="M66 641q0 33 28 33q43 0 45 37q1 21 1 40q0 38 -5 66q-4 16 12.5 28.5t34.5 12.5q35 0 35 -39v-8q-5 -48 -5 -75q0 -20 3 -29q6 -33 31 -33h200q27 0 27 -25q0 -31 -31 -33q-40 6 -97 6q-46 0 -103 -4q-31 -10 -33 -28q0 -76 -2 -234v-18q0 -238 106 -287q25 -12 49 -12 q45 0 76 36t45 36q29 0 29 -31q0 -11 -6 -23q-38 -75 -145 -75h-3q-31 0 -63 6q-163 35 -163 304q0 16 1 32q2 55 2 101q0 70 -4 122q-4 49 -43 63q-23 8 -22 31z" />
<glyph unicode="u" horiz-adv-x="841" d="M135 633q0 27 62 43q29 8 49 8q36 0 41 -27q10 -49 10 -92q0 -78 -41 -188q-32 -85 -33 -142q0 -12 2 -22q19 -154 160 -154h14q94 6 166 103q27 37 31 129q1 28 1 55q0 122 -22 236q-2 14 -34 41q-27 31 12 46t63 15q51 0 52 -59q0 -18 -4 -43q-5 -22 -5 -99 q0 -58 3 -147q6 -195 14 -239t43 -44q31 0 51 29q6 10 18 10q23 0 23 -22q0 -13 -8 -25q-36 -54 -97 -54q-8 0 -16 1q-63 8 -84 71q-10 29 -41 7q-90 -82 -184 -84h-6q-93 0 -153 55q-62 57 -70 158q-1 9 -1 19q0 63 32.5 165.5t32.5 155.5q0 9 -1 16q-6 51 -43 60.5 t-37 17.5z" />
<glyph unicode="v" horiz-adv-x="724" d="M45 629q0 20 25 20q113 0 127 -2t14 -18q0 -14 -12 -23q-20 -14 -6 -57q23 -74 84 -233.5t71 -174.5q12 -18 29 2q10 14 86 192.5t86 213.5q14 47 -4 57q-12 4 -15 23q0 16 14.5 18t129.5 2q23 0 24 -18q0 -17 -10 -29q-16 -6 -45 -37q-123 -274 -262 -577 q-8 -14 -21 -15q-18 0 -26 21q-27 70 -230 565q-2 4 -49 43q-10 10 -10 27z" />
<glyph unicode="w" horiz-adv-x="980" d="M53 629q0 20 27 20q100 0 114.5 -2t14.5 -18q0 -14 -12 -23q-20 -14 -9 -57q109 -369 134 -406q6 -10 12 -18q4 -4 14 6q23 63 80 225q6 18 2 41q-18 47 -18 68q0 35 32 35q18 0 50 -84q96 -270 106 -285q10 -14 27 6q10 12 78.5 192.5t80.5 219.5q14 47 -6 57 q-12 6 -12 23q0 16 14.5 18t126.5 2q25 0 25 -20q0 -15 -12 -27q-10 -4 -41 -27q-31 -33 -138 -303q-57 -141 -114 -284q-8 -14 -21 -15q-18 0 -26 21q-14 47 -101 260q-8 37 -20 10q-51 -129 -111 -276q-8 -14 -20 -15q-16 0 -25 21q-82 250 -203 565q-10 20 -39 43 q-10 12 -10 27z" />
<glyph unicode="x" horiz-adv-x="784" d="M55 10q-1 4 -1 8q0 8 5 15q94 88 303 307q12 14 3 31q-37 51 -78 127q-37 68 -47.5 79t-30 16t-23.5 9q-10 10 -10 27q0 20 25 20q113 0 127 -2t14 -18q0 -14 -13.5 -23.5t-13.5 -25.5q0 -35 86 -156q16 -25 35 2l129 152q6 10 6 20t-5 22.5t-5 14.5q0 8 19 10 q35 4 108 4q23 0 23 -14t-17 -27q-61 -49 -231 -237q-14 -14 -4 -29q84 -119 188 -258q27 -14 66 -43q10 -10 10 -27q0 -20 -25 -20q-88 0 -137 4q-20 4 0 43q0 14 -10 51q-37 61 -76 125q-53 80 -76 80q-3 0 -6 -2q-160 -182 -168 -209q-8 -29 2 -45q27 -37 -2 -43h-139 q-25 0 -31 12z" />
<glyph unicode="y" horiz-adv-x="724" d="M-55 -459q-8 23 -8 39q0 26 20 35q12 6 23 6q37 0 43 -43q12 -74 77 -74q129 0 203 197q76 207 76 288q0 15 -2 25q-4 18 -68 84q-76 74 -116 154q-66 125 -82 299q-2 20 -31 35q-20 8 -39 16q-10 10 -10 27q0 20 24 20q94 0 127 -2q18 -2 19 -16q0 -6 -10.5 -36 t-8.5 -50q8 -154 78 -275q53 -96 123 -139q18 -12 47 19q14 14 55 180t45 219q4 49 -10 55t-14 25q0 16 14.5 18t126.5 2q25 0 25 -20q0 -17 -10 -27q-20 -6 -46 -37q-168 -629 -178 -665q-70 -244 -128 -339.5t-156 -121.5q-23 -6 -48 -6q-125 0 -161 108z" />
<glyph unicode="z" horiz-adv-x="800" d="M59 23q0 25 18.5 36t250.5 263q226 246 225 259q0 11 -76 11q-53 0 -143 -6q-61 -4 -60 -66q2 -45 -30 -45q-33 0 -33 32t-7 67.5t-7 46.5q0 33 30 32q8 0 34 -4t40 -4h72q205 0 282 10q8 1 15 1q28 0 28 -21q0 -10 -12 -14.5t-229 -251.5q-225 -256 -230 -260 q-35 -31 0 -35q14 -4 168 -4q158 0 192 4t46 13t10 38v5q0 42 31 42t31 -31.5t7 -67.5t7 -46q0 -35 -23 -35q-6 0 -33.5 5t-48.5 5q-119 6 -240 6q-141 0 -286 -8q-29 -2 -29 23z" />
<glyph unicode="{" horiz-adv-x="538" d="M119 600q0 23 22 33q33 12 43 26q25 29 25 101l4 409q0 129 109 125q84 -2 120 -51q8 -12 9 -22q0 -20 -25 -21q-12 0 -20 10q-20 29 -62 29q-53 0 -65 -70q-4 -25 -5 -426q0 -90 -47 -120q-25 -16 0 -37q47 -43 47 -121q0 -494 5 -518q12 -72 65 -72q43 0 62 29 q8 12 20 12q25 0 25 -22q-1 -11 -9 -23q-39 -51 -100 -51q-20 0 -43 4q-82 18 -86 123q-4 121 -4 491q0 72 -23 103q-12 14 -45 26q-23 10 -22 33z" />
<glyph unicode="|" d="M168 -59q12 104 10 604q-4 479 -10 526q-6 45 47 45q49 0 43 -35q-18 -94 -18 -419q0 -612 20 -721q4 -47 -53 -47q-45 0 -39 47z" />
<glyph unicode="}" horiz-adv-x="538" d="M86 -106q0 23 25 22q12 0 20 -12q18 -29 62 -29q53 0 65 72q8 49 4 518q0 76 47 121q27 20 0 37q-47 31 -47 120q4 381 -4 426q-12 70 -65 70q-41 0 -62 -29q-8 -10 -20 -10q-25 0 -25 21q0 10 8 22q37 49 121 51q109 4 109 -125q0 -8 2 -149q2 -156 2 -260 q0 -72 24 -101q10 -14 43 -26q23 -10 23 -33t-23 -33q-33 -12 -45 -26q-23 -31 -22 -103q0 -412 -4 -491q-6 -104 -86 -123q-23 -4 -43 -4q-61 0 -101 51q-8 12 -8 23z" />
<glyph unicode="~" horiz-adv-x="800" d="M176 324q18 100 141 100q49 0 97.5 -43t74.5 -43q82 2 89 74q2 25 28 24q35 0 35 -37q0 -45 -35 -80q-43 -41 -117 -40q-53 0 -98 41.5t-76 41.5q-41 -2 -59 -20q-6 -8 -18 -43q-8 -23 -33 -23q-37 0 -29 48z" />
<glyph unicode="&#xa1;" d="M119 18q0 16 10 21q25 12 30 36.5t5 803.5q0 41 31 41q43 0 43 -43q-2 -63 4 -396q8 -360 14 -397q4 -18 31 -41q14 -14 14 -33q0 -16 -20 -14q-18 2 -76 0q-59 -2 -70 -2q-16 4 -16 24zM137 1108q-4 76 62 82q33 6 57.5 -10.5t24.5 -51.5q0 -72 -62 -81q-33 -4 -56.5 12 t-25.5 49z" />
<glyph unicode="&#xa2;" horiz-adv-x="739" d="M131 436q0 127 78 205q70 70 158 70q31 0 24 -2q10 2 17 22q2 4 4 31q4 41 39 41q39 0 32 -33q-2 -20 -6 -47t33 -35q10 0 24.5 5t20.5 5q12 0 21.5 -10t11.5 -29q2 -12 0 -38q-2 -36 -2 -46q0 -35 -29 -34q-27 0 -43 41q-29 72 -156 61q-61 -4 -104 -55 q-47 -57 -47 -152q0 -98 62.5 -165.5t156.5 -67.5q70 0 109 35q10 8 22 8q29 0 29 -33q0 -14 -13 -27q-57 -41 -114 -49q-20 -2 -29 -6q-14 -6 -18 -25q-4 -10 -4 -32q-4 -37 -37 -37q-39 0 -35 33q4 35 4 45q4 27 -27 37q-182 68 -182 284z" />
<glyph unicode="&#xa3;" horiz-adv-x="755" d="M94 12q-4 23 8 29q29 14 37 45q10 41 20.5 231.5t4.5 229.5q-8 53 -31.5 68.5t-23.5 35.5q0 23 24 23q43 0 49 37q14 225 43 346q53 221 197 235q170 16 207 -102q18 -57 -17 -72q-12 -4 -22 -4q-27 0 -37 33q-14 47 -27 59q-27 29 -98 23q-117 -12 -154 -228 q-23 -135 -32 -294q0 -12 7 -22.5t30 -10.5h104q35 8 35 -25q0 -27 -27 -28q-35 2 -123 -3q-31 -4 -32 -34q-18 -471 -5 -500q4 -20 131 -21q121 0 199 11q35 4 46 13t9 38q-2 47 31 47t33 -31.5t7 -67.5t7 -46q0 -35 -22 -35q-6 0 -34 5t-48 5q-360 16 -477 -10 q-14 -4 -19 20z" />
<glyph unicode="&#xa4;" horiz-adv-x="851" d="M49 -53q0 14 35 49q23 25 47 47q18 23 19 41q0 18 -15 49q-41 82 -41 182q0 115 53 207q25 43 25 45q0 16 -20 35q-25 31 -68 82q-16 16 -16 33q0 43 49 43q20 0 31.5 -18.5t68.5 -86.5q18 -20 92 2q51 16 107 17q68 0 127 -17q68 -18 61 -18q25 0 43 23q35 43 74 92 q14 18 33 18q41 0 41 -45q0 -13 -80 -111q-18 -23 -19 -38q0 -16 17 -43q49 -82 49 -199q0 -115 -47 -205q-25 -47 8 -84q14 -18 45 -57q8 -10 8 -23q0 -49 -45 -49q-16 0 -31 19q-8 10 -36.5 43.5t-59.5 33.5q-16 0 -33 -8q-57 -25 -129 -24q-88 0 -163 28q-12 4 -25 4 q-39 0 -70 -37q-25 -23 -55 -51q-8 -20 -31 -20q-49 0 -49 41zM176 315q0 -121 70.5 -186.5t195.5 -65.5q117 0 178.5 74t61.5 199q0 123 -71.5 190.5t-194.5 67.5q-111 0 -175.5 -79t-64.5 -200z" />
<glyph unicode="&#xa5;" horiz-adv-x="792" d="M115 623q0 20 26 20h148q14 -2 14 -18t-12 -25q-27 -20 -6 -57q39 -57 86 -135q20 -29 43 -2q59 57 139 143q29 39 -4 57q-12 4 -12 23q0 16 14 18t127 2q25 0 24 -20q0 -16 -12 -25.5t-39.5 -40.5t-75 -71.5t-75.5 -79.5q-16 -27 -17 -27q0 -12 27 -10h154q35 4 34 -27 q0 -33 -30 -31q-57 4 -176 5q-59 0 -60 -89q0 -72 12 -143q2 -14 29 -41q10 -10 10 -26q0 -20 -24 -21h-142q-14 2 -14 21q0 18 12 22q29 12 37 45q6 29 0 152q-4 82 -53 82h-158q-23 -2 -22 24q0 29 35 29h110q20 0 21 16q0 10 -6 25q-72 102 -103 135q-2 2 -51 43 q-10 12 -10 27z" />
<glyph unicode="&#xa7;" horiz-adv-x="739" d="M166 340q0 88 82 143q16 10 16 21q0 8 -16 14q-82 53 -82 131q0 66 51 120t133 56q76 2 133 -26q29 -20 55.5 -38t26.5 -40q0 -16 -14 -30.5t-31 -14.5q-12 0 -18 10q-49 78 -146 80q-43 0 -79.5 -26.5t-36.5 -71.5q0 -20 8 -43q20 -49 153 -86q168 -45 177 -203 q4 -76 -37 -129q-18 -25 -19 -31q0 -12 10 -24q42 -49 46 -127q10 -156 -146 -201q-39 -12 -82 -12t-96 14q-33 8 -68 16q-14 0 -14 21q0 20 12.5 36.5t28.5 10.5q39 -14 49 -16q29 -4 57 -9q16 -2 33 -2q66 0 109 36t41 93q-2 106 -123 142q-213 61 -213 186zM240 356 q0 -20 8 -43q20 -51 153 -86q49 -12 72 17q31 31 29 82q-4 82 -76 120q-23 4 -70 7q-43 0 -79.5 -27t-36.5 -70z" />
<glyph unicode="&#xa8;" horiz-adv-x="800" d="M248 903q0 57 51 66q27 4 47.5 -10t20.5 -41q0 -57 -52 -66q-68 -10 -67 51zM459 903q0 57 51 66q63 10 65 -51q2 -57 -51 -66q-66 -10 -65 51z" />
<glyph unicode="&#xa9;" horiz-adv-x="851" d="M94 315q0 154 89 256.5t233 102.5q162 0 254 -87t92 -251q0 -160 -84 -257t-236 -97q-166 0 -257 86t-91 247zM176 315q0 -121 70.5 -186.5t195.5 -65.5q117 0 178.5 74t61.5 199q0 123 -71.5 190.5t-194.5 67.5q-111 0 -175.5 -79t-64.5 -200zM254 334q0 84 53 137 q49 45 109 45q63 0 116 -27q27 -16 27 -40q0 -45 -41 -46q-8 0 -14 5q-12 14 -23 26q-23 20 -69 17q-33 -2 -57.5 -34t-24.5 -83q0 -57 34.5 -95t88.5 -38q33 0 59 20q10 8 20 8q33 0 33 -36q0 -15 -12 -25q-55 -39 -111 -39q-84 0 -136 58.5t-52 146.5z" />
<glyph unicode="&#xaa;" horiz-adv-x="657" d="M86 215q0 43 57 43q299 -4 342 0t43 -41q0 -41 -49 -41q-291 4 -348 2q-45 -2 -45 37zM162 408q12 92 106 112q14 2 49 0q29 -4 29 2q14 72 0 90q-25 25 -55 13q-12 -10 -33 -27q-6 -4 -12 -4q-29 0 -29 33q0 8 5 18t42 37q31 14 55 14q59 0 97 -65q12 -23 8 -64 q-2 -45 -6 -88q-2 -90 10 -104q31 -33 51 4q6 12 21 12q18 0 18 -16q0 -23 -27.5 -41.5t-52.5 -18.5q-12 0 -26 4q-25 6 -31 29q-4 14 -6 12q-33 -31 -33 -30q-29 -18 -78 -23q-43 -2 -71 17q-39 25 -31 84zM236 412q-2 -41 40 -41q39 -4 64 43q4 6 6 26q0 19 -2 23 q-23 20 -68 6q-39 -12 -40 -57z" />
<glyph unicode="&#xab;" horiz-adv-x="1148" d="M184 313q0 23 21 43q150 143 340 332q12 14 30 14q45 0 46 -45q0 -18 -19 -36q-117 -111 -313 -302q131 -127 313 -305q20 -20 21 -43q0 -43 -39 -43q-18 0 -33 17q-33 35 -346 334q-20 10 -21 34zM502 315q0 23 18 41q152 143 340 332q12 14 29 14q49 0 49 -45 q0 -20 -18 -36q-117 -111 -314 -302q130 -127 314 -305q20 -20 20 -43q0 -41 -41 -41q-16 0 -31 15q-33 35 -348 334q-18 12 -18 36z" />
<glyph unicode="&#xac;" horiz-adv-x="768" d="M66 352q0 49 45 45q31 -2 475 4q31 0 46 -17.5t9 -37.5q-8 -178 -8 -224t-41 -46q-47 0 -47 57q0 29 3 61.5t3 53.5q0 31 -6 43q-16 25 -74 24q-76 0 -205 -4q-76 -2 -149 -4q-51 0 -51 45z" />
<glyph unicode="&#xad;" horiz-adv-x="503" d="M59 426q0 43 58 43q208 -2 245 0q43 4 44 -41q0 -41 -50 -41q-221 4 -252 2q-45 -2 -45 37z" />
<glyph unicode="&#xae;" horiz-adv-x="851" d="M94 315q0 154 89 256.5t233 102.5q162 0 254 -87t92 -251q0 -160 -84 -257t-236 -97q-166 0 -257 86t-91 247zM176 315q0 -121 70.5 -186.5t195.5 -65.5q117 0 178.5 74t61.5 199q0 123 -71.5 190.5t-194.5 67.5q-111 0 -175.5 -79t-64.5 -200zM285 504q8 18 30 16 q16 -4 62 -2q66 4 65 4q136 0 136 -131q0 -102 -95 -127q49 -63 70 -98q4 -8 4 -14q0 -27 -35 -27q-25 0 -33 20q-18 47 -71 109q0 2 -4 4t-6 4q-27 6 -48 27q2 -55 7 -123q6 -35 -35 -35q-35 0 -33 35q2 20 0 151q-2 137 -4 150q0 -2 -9.5 9t-0.5 28zM369 399q6 -45 22 -59 q16 -20 53 -21q66 0 66 72q0 68 -68 68q-51 0 -73 -6q-8 -10 0 -54z" />
<glyph unicode="&#xaf;" horiz-adv-x="503" d="M63 924q0 45 58 43q178 -4 241 0q43 4 44 -39q0 -39 -50 -39q-141 2 -250 -2q-43 -2 -43 37z" />
<glyph unicode="&#xb0;" horiz-adv-x="800" d="M256 948q0 57 34 99.5t97 44.5q66 2 115 -33t57 -98q10 -68 -24.5 -119t-106.5 -51q-74 0 -123 41.5t-49 115.5zM319 930q12 -78 101 -78q43 0 63.5 30.5t14.5 69.5q-6 37 -35 58.5t-66 19.5q-41 -2 -62.5 -32.5t-15.5 -67.5z" />
<glyph unicode="&#xb1;" horiz-adv-x="503" d="M59 274q0 45 58 43h39q39 -4 41 31q2 55 -13 64q-4 2 -80 0q-45 -2 -45 32q0 39 57.5 39t69 3t11.5 22q0 6 -2 27.5t-2 35.5q-2 43 43 43q41 0 40 -49q0 -72 5.5 -78t80.5 -4q43 4 44 -37q0 -39 -50 -36q-18 0 -39.5 3t-27.5 3q-16 0 -21 -15q-2 -12 0 -57q8 -29 45 -29 q26 0 49 2q43 4 44 -43q0 -41 -50 -41q-268 4 -252 5q-45 0 -45 36z" />
<glyph unicode="&#xb4;" horiz-adv-x="557" d="M186 870q0 35 27 39q66 8 106 97q14 31 43 30q23 0 41.5 -17.5t18.5 -39.5q0 -21 -14 -37q-20 -27 -73.5 -58.5t-98.5 -41.5q-49 -10 -50 28z" />
<glyph unicode="&#xb6;" horiz-adv-x="1140" d="M55 838q0 162 97.5 254t259.5 92q-18 0 270 -8q203 -6 362 4q14 0 17 -21q2 -20 -10 -24q-29 -16 -29 -35q-12 -45 -8 -510q2 -459 10 -506q2 -8 29 -41q10 -8 10 -25q0 -20 -25 -20h-141q-14 2 -14 20q0 16 12 23q29 12 37 43t4 469q0 51 -23 51q-6 0 -14 -6 q-47 -20 -119 -63q-23 -20 -22 -64q-4 -350 5 -384t38 -46q12 -6 12 -23q0 -18 -14 -20h-176q-18 0 -19 12q0 16 21 33q20 8 47 41q10 47 14 369q0 43 -33 43q-8 0 -18 -2q-106 -25 -223 -25q-154 0 -255.5 104.5t-101.5 264.5zM135 838q0 -123 78 -205t199 -82 q119 0 223 18q51 9 51 68q-4 360 -12 393q0 53 -43 64q-57 14 -219 14q-123 0 -200 -73.5t-77 -196.5zM760 643q0 -31 24 -31q8 0 17 4q39 14 98 54q37 24 35 90q-4 154 -10 330q-6 37 -84 32q-63 -4 -68 -32q-8 -55 -12 -447z" />
<glyph unicode="&#xb7;" horiz-adv-x="360" d="M100 438q0 72 62 82q33 6 56.5 -11t25.5 -50q4 -72 -62 -82q-33 -4 -57.5 12.5t-24.5 48.5z" />
<glyph unicode="&#xb8;" horiz-adv-x="739" d="M289 -340q0 37 30 37q16 0 29 -19q37 -55 131 -45q45 4 83 39t30 84q-14 76 -107 76q-20 0 -54 -10t-48 -10q-29 0 -29 36q0 20 17.5 79t17.5 79.5t33 22.5q31 2 31 -13q-25 -92 -25 -120q0 -10 6 -13q4 -2 15 2q20 4 45 4q130 0 159 -106q6 -20 6 -41q0 -68 -50 -117 t-134 -55q-147 -8 -184 78q-2 6 -2 12z" />
<glyph unicode="&#xba;" horiz-adv-x="710" d="M127 215q0 43 57 43q299 -4 342 0t43 -41q0 -41 -49 -41q-291 4 -348 2q-45 -2 -45 37zM174 479q0 84 57.5 142.5t139.5 58.5q174 -1 174 -191q0 -86 -56.5 -144t-140.5 -58q-174 0 -174 192zM252 479q0 -115 96 -114q51 0 86 35.5t35 88.5q0 115 -98 115q-49 0 -84 -37 t-35 -88z" />
<glyph unicode="&#xbb;" horiz-adv-x="1148" d="M190 -29q0 23 21 43q121 115 313 305q-135 129 -313 302q-18 18 -18 36q0 45 45 45q18 0 30 -14q139 -135 340 -332q20 -20 21 -43q-1 -24 -21 -34l-346 -334q-14 -14 -33 -15q-39 0 -39 41zM506 -29q0 23 20 43q121 115 314 305q-47 47 -314 302q-18 16 -18 36 q0 45 47 45q18 0 31 -14q6 -8 338 -332q20 -20 20 -43q0 -24 -20 -34l-346 -334q-14 -14 -31 -15q-41 0 -41 41z" />
<glyph unicode="&#xbf;" horiz-adv-x="763" d="M115 289q0 141 94 227q72 66 174 86q78 14 128 61.5t46 102.5q-6 111 -117 111q-74 0 -121 -95q-10 -20 -30 -20q-45 0 -35 47q27 113 137 145q29 8 60 9q78 0 135 -49.5t59 -131.5q2 -102 -78 -178q-72 -66 -170 -82q-201 -35 -200 -233q0 -125 71.5 -191.5t194.5 -66.5 q59 0 59 -31q0 -16 -18.5 -32.5t-40.5 -16.5q-162 0 -255 87t-93 251zM389 1092q-4 72 62 82q33 4 57 -12.5t24 -49.5q0 -72 -61 -82q-33 -6 -56.5 11.5t-25.5 50.5z" />
<glyph unicode="&#xc0;" horiz-adv-x="1142" d="M33 23q0 14 10 26q20 10 51 43q258 518 539 1090q8 20 26 20q12 0 21 -14q2 -4 170 -483q172 -496 233 -621q10 -22 45 -51q27 -33 -14 -33q-135 0 -149.5 2t-14.5 18q0 18 13 23q37 20 26 57q-2 8 -112 322q-14 41 -37 39q-190 4 -451 0q-33 0 -49 -23 q-139 -270 -160 -336q-14 -45 31 -57q12 -4 12 -20q0 -20 -14 -23h-150q-27 0 -26 21zM391 537q-14 -23 20.5 -23t206.5 -2q139 -2 203 0q23 0 15 23q-162 457 -172 466q-16 20 -29 3q-20 -31 -244 -467zM549 1444q0 23 18.5 40t38.5 17q29 0 43 -31q41 -88 107 -96 q27 -4 26 -39q0 -39 -47 -28q-111 25 -172 100q-14 16 -14 37z" />
<glyph unicode="&#xc1;" horiz-adv-x="1142" d="M33 23q0 14 10 26q20 10 51 43q258 518 539 1090q8 20 26 20q12 0 21 -14q2 -4 170 -483q172 -496 233 -621q10 -22 45 -51q27 -33 -14 -33q-135 0 -149.5 2t-14.5 18q0 18 13 23q37 20 26 57q-2 8 -112 322q-14 41 -37 39q-190 4 -451 0q-33 0 -49 -23 q-139 -270 -160 -336q-14 -45 31 -57q12 -4 12 -20q0 -20 -14 -23h-150q-27 0 -26 21zM391 537q-14 -23 20.5 -23t206.5 -2q139 -2 203 0q23 0 15 23q-162 457 -172 466q-16 20 -29 3q-20 -31 -244 -467zM590 1335q0 35 26 39q66 8 107 96q14 31 43 31q20 0 38.5 -17.5 t18.5 -39.5q0 -21 -14 -37q-61 -76 -172 -100q-47 -10 -47 28z" />
<glyph unicode="&#xc2;" horiz-adv-x="1142" d="M33 23q0 14 10 26q20 10 51 43q258 518 539 1090q8 20 26 20q12 0 21 -14q2 -4 170 -483q172 -496 233 -621q10 -22 45 -51q27 -33 -14 -33q-135 0 -149.5 2t-14.5 18q0 18 13 23q37 20 26 57q-2 8 -112 322q-14 41 -37 39q-190 4 -451 0q-33 0 -49 -23 q-139 -270 -160 -336q-14 -45 31 -57q12 -4 12 -20q0 -20 -14 -23h-150q-27 0 -26 21zM391 537q-14 -23 20.5 -23t206.5 -2q139 -2 203 0q23 0 15 23q-162 457 -172 466q-16 20 -29 3q-20 -31 -244 -467zM463 1323q0 10 6 18q74 74 168 170q16 20 33 19q23 0 45 -31 q63 -65 143 -149q12 -14 12 -31q0 -43 -41 -43q-20 0 -38 22q-96 127 -123 129q-16 2 -70 -57q-45 -49 -57.5 -70.5t-30.5 -21.5t-32.5 14.5t-14.5 30.5z" />
<glyph unicode="&#xc3;" horiz-adv-x="1142" d="M33 23q0 14 10 26q20 10 51 43q258 518 539 1090q8 20 26 20q12 0 21 -14q2 -4 170 -483q172 -496 233 -621q10 -22 45 -51q27 -33 -14 -33q-135 0 -149.5 2t-14.5 18q0 18 13 23q37 20 26 57q-2 8 -112 322q-14 41 -37 39q-190 4 -451 0q-33 0 -49 -23 q-139 -270 -160 -336q-14 -45 31 -57q12 -4 12 -20q0 -20 -14 -23h-150q-27 0 -26 21zM391 537q-14 -23 20.5 -23t206.5 -2q139 -2 203 0q23 0 15 23q-162 457 -172 466q-16 20 -29 3q-20 -31 -244 -467zM440 1341q20 100 142 101q47 0 96 -43t76 -43q82 2 88 74q2 25 28 24 q33 0 33 -37q0 -45 -35 -78q-41 -41 -114 -41q-53 0 -99.5 41t-76.5 41q-59 0 -78 -61q-8 -25 -33 -25q-37 0 -27 47z" />
<glyph unicode="&#xc4;" horiz-adv-x="1142" d="M33 23q0 14 10 26q20 10 51 43q258 518 539 1090q8 20 26 20q12 0 21 -14q2 -4 170 -483q172 -496 233 -621q10 -22 45 -51q27 -33 -14 -33q-135 0 -149.5 2t-14.5 18q0 18 13 23q37 20 26 57q-2 8 -112 322q-14 41 -37 39q-190 4 -451 0q-33 0 -49 -23 q-139 -270 -160 -336q-14 -45 31 -57q12 -4 12 -20q0 -20 -14 -23h-150q-27 0 -26 21zM354 1223q0 57 52 65q63 10 65 -51q2 -57 -51 -66q-66 -10 -66 52zM391 537q-14 -23 20.5 -23t206.5 -2q139 -2 203 0q23 0 15 23q-162 457 -172 466q-16 20 -29 3q-20 -31 -244 -467z M838 1223q0 57 51 65q65 10 65 -51q0 -57 -51 -66q-66 -10 -65 52z" />
<glyph unicode="&#xc5;" horiz-adv-x="1142" d="M33 23q0 14 10 26q20 10 51 43q258 518 539 1090q8 20 26 20q12 0 21 -14q2 -4 170 -483q172 -496 233 -621q10 -22 45 -51q27 -33 -14 -33q-135 0 -149.5 2t-14.5 18q0 18 13 23q37 20 26 57q-2 8 -112 322q-14 41 -37 39q-190 4 -451 0q-33 0 -49 -23 q-139 -270 -160 -336q-14 -45 31 -57q12 -4 12 -20q0 -20 -14 -23h-150q-27 0 -26 21zM391 537q-14 -23 20.5 -23t206.5 -2q139 -2 203 0q23 0 15 23q-162 457 -172 466q-16 20 -29 3q-20 -31 -244 -467zM530 1403q0 66 34 115t95 57q68 10 118 -25.5t54 -105.5 q4 -76 -41 -125t-118 -49q-59 0 -100.5 34.5t-41.5 98.5zM592 1411q0 -43 30.5 -63.5t69.5 -14.5q82 15 78 103q-2 41 -32.5 62.5t-69.5 14.5q-76 -12 -76 -102z" />
<glyph unicode="&#xc6;" horiz-adv-x="1355" d="M33 23q0 14 10 26q20 10 51 43q258 518 539 1090q6 14 24 14q14 0 48 -10t51 -10q166 -6 323 0q20 0 47 4t33 4q25 0 25 -35q0 -10 -7.5 -45t-7.5 -66.5t-30 -31.5q-33 0 -31 46t-57 52q-137 16 -215 16q-90 0 -97 -20q-10 -31 -10 -391q0 -25 27 -27q217 -12 250 6 q23 12 23.5 33.5t21.5 21.5q29 0 32 -32q-2 -41 -4 -97q4 -35 -28 -34q-27 0 -31 26q2 6 -19 27q-39 20 -241 4q-31 -2 -31 -33q4 -473 14 -520q4 -20 162 -21q164 0 242 11l45 6q14 6 12 33q-2 45 31 45t33 -31q0 -18 4 -61q2 -25 -4 -39q-12 -33 -27 -33q-2 0 -23.5 4 t-41.5 4q-422 18 -551 -10q-14 -4 -19 20q-4 23 8 29q31 14 38 47t3 334q0 41 -32 41q-111 0 -234 -2q-33 0 -49 -23q-139 -270 -160 -336q-14 -45 31 -57q12 -4 12 -20q0 -20 -14 -23h-150q-27 0 -26 21zM391 537q-14 -23 19 -23q51 0 120 -2q55 -2 115 0q6 0 12 8 q4 6 0 15q5 143 5 460q0 43 -23 43q-82 0 -127 -92q-27 -55 -59.5 -203.5t-61.5 -205.5z" />
<glyph unicode="&#xc7;" horiz-adv-x="1339" d="M133 598q0 289 147.5 444.5t421.5 155.5q297 0 474 -176q33 -33 32 -66q0 -47 -49 -118q-8 -14 -29 -15q-31 0 -30 25q0 8 8 24.5t8 30.5q0 31 -41 76q-37 39 -121 82q-127 63 -256 63q-477 0 -477 -526q0 -238 144 -393q145 -162 370 -162q193 0 303 57q47 25 99 82 q10 12 24 13q33 0 33 -33q0 -11 -8 -21q-27 -49 -103 -94q-111 -70 -272 -84q-23 -2 -29 -6q-16 -6 -20 -33q-8 -43 -8 -55q0 -14 20 -10t45 4q131 0 160 -107q6 -20 6 -41q0 -68 -50 -117t-134 -55q-145 -8 -185 78q-2 6 -2 12q0 37 31 37q16 0 29 -18q35 -53 129 -43 q45 4 80 35q43 37 32 86q-14 76 -106 75q-27 0 -58.5 -10t-41.5 -10q-29 0 -29 37q0 10 2 22l18 72q12 47 -30 47q-240 25 -388.5 202t-148.5 433z" />
<glyph unicode="&#xc8;" horiz-adv-x="860" d="M115 1163q4 25 18 21q94 -20 463 -8q20 0 47 4t35 4q23 0 22 -35q0 -10 -6 -45t-6 -66.5t-33 -31.5t-30 45q2 29 -10.5 39t-47.5 14q-141 16 -215 16q-88 0 -96 -22.5t-8 -388.5q0 -25 26 -27q219 -12 250 6q20 12 21.5 33.5t21.5 21.5q29 0 33 -32q2 -16 0 -54 q-4 -45 -4 -43q4 -35 -29 -34q-27 0 -30 26q2 6 -19 27q-35 20 -242 4q-29 -2 -28 -33q0 -465 12 -520q4 -20 162 -21q164 0 242 11q45 6 47 6q12 6 10 33q-2 45 31 45t32 -31q0 -18 4 -61q2 -25 -4 -39q-12 -33 -24 -33q-4 0 -24.5 4t-41.5 4q-424 18 -553 -10 q-14 -4 -18 20q-4 23 8 29q29 12 37 48t4 499q-4 457 -12 502q-6 31 -37 45q-12 6 -8 28zM324 1444q0 23 18 40t39 17q29 0 43 -31q40 -88 106 -96q27 -4 27 -39q0 -39 -47 -28q-111 25 -172 100q-14 16 -14 37z" />
<glyph unicode="&#xc9;" horiz-adv-x="860" d="M115 1163q4 25 18 21q94 -20 463 -8q20 0 47 4t35 4q23 0 22 -35q0 -10 -6 -45t-6 -66.5t-33 -31.5t-30 45q2 29 -10.5 39t-47.5 14q-141 16 -215 16q-88 0 -96 -22.5t-8 -388.5q0 -25 26 -27q219 -12 250 6q20 12 21.5 33.5t21.5 21.5q29 0 33 -32q2 -16 0 -54 q-4 -45 -4 -43q4 -35 -29 -34q-27 0 -30 26q2 6 -19 27q-35 20 -242 4q-29 -2 -28 -33q0 -465 12 -520q4 -20 162 -21q164 0 242 11q45 6 47 6q12 6 10 33q-2 45 31 45t32 -31q0 -18 4 -61q2 -25 -4 -39q-12 -33 -24 -33q-4 0 -24.5 4t-41.5 4q-424 18 -553 -10 q-14 -4 -18 20q-4 23 8 29q29 12 37 48t4 499q-4 457 -12 502q-6 31 -37 45q-12 6 -8 28zM389 1311q0 35 27 39q66 6 106 94q14 31 43 31q20 0 39 -17.5t19 -40.5q-1 -21 -15 -37q-61 -76 -170 -100q-49 -10 -49 31z" />
<glyph unicode="&#xca;" horiz-adv-x="860" d="M115 1163q4 25 18 21q94 -20 463 -8q20 0 47 4t35 4q23 0 22 -35q0 -10 -6 -45t-6 -66.5t-33 -31.5t-30 45q2 29 -10.5 39t-47.5 14q-141 16 -215 16q-88 0 -96 -22.5t-8 -388.5q0 -25 26 -27q219 -12 250 6q20 12 21.5 33.5t21.5 21.5q29 0 33 -32q2 -16 0 -54 q-4 -45 -4 -43q4 -35 -29 -34q-27 0 -30 26q2 6 -19 27q-35 20 -242 4q-29 -2 -28 -33q0 -465 12 -520q4 -20 162 -21q164 0 242 11q45 6 47 6q12 6 10 33q-2 45 31 45t32 -31q0 -18 4 -61q2 -25 -4 -39q-12 -33 -24 -33q-4 0 -24.5 4t-41.5 4q-424 18 -553 -10 q-14 -4 -18 20q-4 23 8 29q29 12 37 48t4 499q-4 457 -12 502q-6 31 -37 45q-12 6 -8 28zM221 1352q0 8 6 16l170 170q16 20 33 18q23 0 45 -30q63 -66 143 -152q10 -14 11 -31q0 -43 -39 -43q-20 0 -39 25q-96 127 -123 129q-16 2 -70 -57q-45 -49 -57 -70.5t-31 -21.5 q-18 0 -33.5 15t-15.5 32z" />
<glyph unicode="&#xcb;" horiz-adv-x="860" d="M115 1163q4 25 18 21q94 -20 463 -8q20 0 47 4t35 4q23 0 22 -35q0 -10 -6 -45t-6 -66.5t-33 -31.5t-30 45q2 29 -10.5 39t-47.5 14q-141 16 -215 16q-88 0 -96 -22.5t-8 -388.5q0 -25 26 -27q219 -12 250 6q20 12 21.5 33.5t21.5 21.5q29 0 33 -32q2 -16 0 -54 q-4 -45 -4 -43q4 -35 -29 -34q-27 0 -30 26q2 6 -19 27q-35 20 -242 4q-29 -2 -28 -33q0 -465 12 -520q4 -20 162 -21q164 0 242 11q45 6 47 6q12 6 10 33q-2 45 31 45t32 -31q0 -18 4 -61q2 -25 -4 -39q-12 -33 -24 -33q-4 0 -24.5 4t-41.5 4q-424 18 -553 -10 q-14 -4 -18 20q-4 23 8 29q29 12 37 48t4 499q-4 457 -12 502q-6 31 -37 45q-12 6 -8 28zM303 1376q0 57 51 66q64 10 66 -51q2 -57 -51 -66q-66 -10 -66 51zM514 1376q0 57 51 66q64 10 66 -51q2 -57 -51 -66q-66 -10 -66 51z" />
<glyph unicode="&#xcc;" d="M88 1444q0 23 18.5 40t38.5 17q29 0 43 -31q41 -88 107 -96q27 -4 27 -39q0 -39 -48 -28q-111 25 -172 100q-14 16 -14 37zM115 1163q0 16 20 15q61 2 146 2q16 -4 16 -25q0 -16 -10 -20q-29 -16 -29 -35q-10 -45 -8 -510q2 -459 10 -506q2 -8 29 -41q10 -8 10 -25 q0 -20 -25 -20h-141q-14 2 -14 20q0 16 12 23q29 12 37 48t4 499q-4 457 -12 502q-2 12 -31 40q-14 14 -14 33z" />
<glyph unicode="&#xcd;" d="M109 1335q0 35 26 39q66 8 107 96q14 31 43 31q20 0 38.5 -17.5t18.5 -39.5q0 -21 -14 -37q-61 -76 -172 -100q-47 -10 -47 28zM115 1163q0 16 20 15q61 2 146 2q16 -4 16 -25q0 -16 -10 -20q-29 -16 -29 -35q-10 -45 -8 -510q2 -459 10 -506q2 -8 29 -41q10 -8 10 -25 q0 -20 -25 -20h-141q-14 2 -14 20q0 16 12 23q29 12 37 48t4 499q-4 457 -12 502q-2 12 -31 40q-14 14 -14 33z" />
<glyph unicode="&#xce;" d="M-4 1352q0 8 6 16l170 170q16 20 33 18q23 0 45 -30q63 -66 143 -152q10 -14 10 -31q0 -43 -38 -43q-20 0 -39 25q-96 127 -123 129q-16 2 -70 -57q-45 -49 -57.5 -70.5t-30.5 -21.5t-33.5 15t-15.5 32zM115 1163q0 16 20 15q61 2 146 2q16 -4 16 -25q0 -16 -10 -20 q-29 -16 -29 -35q-10 -45 -8 -510q2 -459 10 -506q2 -8 29 -41q10 -8 10 -25q0 -20 -25 -20h-141q-14 2 -14 20q0 16 12 23q29 12 37 48t4 499q-4 457 -12 502q-2 12 -31 40q-14 14 -14 33z" />
<glyph unicode="&#xcf;" d="M47 1376q0 57 51 66q64 10 66 -51q2 -57 -51 -66q-66 -10 -66 51zM115 1163q0 16 20 15q61 2 146 2q16 -4 16 -25q0 -16 -10 -20q-29 -16 -29 -35q-10 -45 -8 -510q2 -459 10 -506q2 -8 29 -41q10 -8 10 -25q0 -20 -25 -20h-141q-14 2 -14 20q0 16 12 23q29 12 37 48 t4 499q-4 457 -12 502q-2 12 -31 40q-14 14 -14 33zM258 1376q0 57 51 66q64 10 66 -51q2 -57 -51 -66q-66 -10 -66 51z" />
<glyph unicode="&#xd1;" horiz-adv-x="1042" d="M115 1163q0 16 20 15q70 -4 115 2q23 4 291 -500t305 -504q4 0 6 6q10 37 6 453q-6 408 -14 455q-2 12 -31 40q-14 14 -14 33q0 16 20 15q61 2 146 2q16 -4 16 -25q0 -16 -10 -20q-25 -12 -29 -35q-12 -55 -14 -498q-2 -461 16 -588q2 -18 -12 -35.5t-33 -17.5 q-16 0 -31 12q-31 27 -293 502q-268 485 -290 512q-14 18 -23 19q-4 0 -8 -41q-10 -90 -10 -308q0 -481 16 -573q2 -8 29 -41q10 -8 10 -25q0 -20 -25 -20h-141q-14 2 -14 20q0 16 12 23q29 12 37 48t4 499q-4 457 -12 502q-2 12 -31 40q-14 14 -14 33zM317 1341 q20 100 142 101q47 0 96 -43t76 -43q82 2 88 74q2 25 29 24q32 0 32 -37q0 -45 -35 -78q-41 -41 -114 -41q-53 0 -99.5 41t-76.5 41q-59 0 -78 -61q-8 -25 -33 -25q-37 0 -27 47z" />
<glyph unicode="&#xd2;" horiz-adv-x="1288" d="M104 561q0 266 154 451.5t389 185.5q254 0 390.5 -156.5t136.5 -443.5q0 -274 -157 -455.5t-403 -181.5q-510 0 -510 600zM186 561q0 -518 428 -518q211 0 344.5 158.5t133.5 396.5q0 246 -116 382t-329 136q-203 0 -332 -162.5t-129 -392.5zM600 1444q0 23 18.5 40 t38.5 17q29 0 43 -31q41 -88 107 -96q27 -4 27 -39q0 -39 -48 -28q-111 25 -172 100q-14 16 -14 37z" />
<glyph unicode="&#xd3;" horiz-adv-x="1288" d="M104 561q0 266 154 451.5t389 185.5q254 0 390.5 -156.5t136.5 -443.5q0 -274 -157 -455.5t-403 -181.5q-510 0 -510 600zM186 561q0 -518 428 -518q211 0 344.5 158.5t133.5 396.5q0 246 -116 382t-329 136q-203 0 -332 -162.5t-129 -392.5zM600 1335q0 35 27 39 q66 8 106 96q14 31 43 31q20 0 39 -17.5t19 -39.5q-1 -21 -15 -37q-61 -76 -172 -100q-47 -10 -47 28z" />
<glyph unicode="&#xd4;" horiz-adv-x="1288" d="M104 561q0 266 154 451.5t389 185.5q254 0 390.5 -156.5t136.5 -443.5q0 -274 -157 -455.5t-403 -181.5q-510 0 -510 600zM186 561q0 -518 428 -518q211 0 344.5 158.5t133.5 396.5q0 246 -116 382t-329 136q-203 0 -332 -162.5t-129 -392.5zM477 1352q0 8 6 16l170 170 q16 20 33 18q23 0 45 -30q63 -66 143 -152q10 -14 11 -31q0 -43 -39 -43q-20 0 -39 25q-96 127 -123 129q-16 2 -70 -57q-45 -49 -57 -70.5t-31 -21.5q-18 0 -33.5 15t-15.5 32z" />
<glyph unicode="&#xd5;" horiz-adv-x="1288" d="M104 561q0 266 154 451.5t389 185.5q254 0 390.5 -156.5t136.5 -443.5q0 -274 -157 -455.5t-403 -181.5q-510 0 -510 600zM186 561q0 -518 428 -518q211 0 344.5 158.5t133.5 396.5q0 246 -116 382t-329 136q-203 0 -332 -162.5t-129 -392.5zM502 1341q20 100 141 101 q47 0 96 -43t76 -43q82 2 88 74q2 25 29 24q33 0 33 -37q0 -45 -35 -78q-41 -41 -115 -41q-53 0 -99 41t-77 41q-59 0 -78 -61q-8 -25 -33 -25q-37 0 -26 47z" />
<glyph unicode="&#xd6;" horiz-adv-x="1288" d="M104 561q0 266 154 451.5t389 185.5q254 0 390.5 -156.5t136.5 -443.5q0 -274 -157 -455.5t-403 -181.5q-510 0 -510 600zM186 561q0 -518 428 -518q211 0 344.5 158.5t133.5 396.5q0 246 -116 382t-329 136q-203 0 -332 -162.5t-129 -392.5zM205 1223q0 57 51 65 q64 10 66 -51q2 -57 -52 -66q-66 -10 -65 52zM1022 1223q0 57 51 65q66 10 66 -51q0 -57 -52 -66q-66 -10 -65 52z" />
<glyph unicode="&#xd8;" horiz-adv-x="1288" d="M51 -49q0 12 15 26q39 37 116 129q27 25 -6 91q-72 145 -72 364q0 266 154 451.5t389 185.5q184 0 307 -84q29 -20 37 -20q20 0 45 30l78 95q16 23 41 22q49 0 49 -37q0 -10 -6 -18q-27 -31 -100 -119q-23 -27 -23 -49q0 -25 19 -57q80 -150 80 -363q0 -274 -157 -455.5 t-403 -181.5q-195 0 -311 82q-16 12 -31 12q-25 0 -49 -30l-78 -95q-8 -20 -36 -20q-57 0 -58 41zM186 561q0 -166 47 -287q14 -37 50 -36q14 0 24 10q211 244 596 713q27 35 27 47q0 20 -31 43q-96 66 -252 65q-203 0 -332 -162.5t-129 -392.5zM330 145q0 -14 24 -32 q96 -70 260 -70q211 0 344.5 158.5t133.5 396.5q0 178 -62 301q-12 27 -37 27q-16 0 -28 -19q-119 -127 -312 -362q-150 -182 -297 -363q-27 -31 -26 -37z" />
<glyph unicode="&#xd9;" horiz-adv-x="1036" d="M115 1163q0 16 20 15q61 2 146 2q16 -4 16 -25q0 -16 -10 -20q-29 -16 -29 -35q-6 -29 -8 -193q0 -115 2 -323q2 -229 2 -254q0 -123 79 -195t206 -72q119 0 196.5 82t77.5 205q2 14 2 76q0 135 -9 382t-15 282q-2 12 -31 40q-14 16 -15 33q0 16 21 15q61 2 147 2 q14 -2 17 -23q0 -16 -10 -22q-25 -12 -31 -35q-8 -37 -4 -316q8 -401 8 -434q0 -158 -100.5 -263t-253.5 -105q-166 0 -265.5 93t-99.5 255q0 680 -14 760q-2 12 -31 40q-14 14 -14 33zM416 1444q0 23 18.5 40t38.5 17q29 0 43 -31q41 -88 107 -96q27 -4 26 -39 q0 -39 -47 -28q-111 25 -172 100q-14 16 -14 37z" />
<glyph unicode="&#xda;" horiz-adv-x="1036" d="M115 1163q0 16 20 15q61 2 146 2q16 -4 16 -25q0 -16 -10 -20q-29 -16 -29 -35q-6 -29 -8 -193q0 -115 2 -323q2 -229 2 -254q0 -123 79 -195t206 -72q119 0 196.5 82t77.5 205q2 14 2 76q0 135 -9 382t-15 282q-2 12 -31 40q-14 16 -15 33q0 16 21 15q61 2 147 2 q14 -2 17 -23q0 -16 -10 -22q-25 -12 -31 -35q-8 -37 -4 -316q8 -401 8 -434q0 -158 -100.5 -263t-253.5 -105q-166 0 -265.5 93t-99.5 255q0 680 -14 760q-2 12 -31 40q-14 14 -14 33zM467 1335q0 35 27 39q66 8 106 96q14 31 43 31q20 0 38.5 -17.5t18.5 -39.5 q0 -21 -14 -37q-61 -76 -172 -100q-47 -10 -47 28z" />
<glyph unicode="&#xdb;" horiz-adv-x="1036" d="M115 1163q0 16 20 15q61 2 146 2q16 -4 16 -25q0 -16 -10 -20q-29 -16 -29 -35q-6 -29 -8 -193q0 -115 2 -323q2 -229 2 -254q0 -123 79 -195t206 -72q119 0 196.5 82t77.5 205q2 14 2 76q0 135 -9 382t-15 282q-2 12 -31 40q-14 16 -15 33q0 16 21 15q61 2 147 2 q14 -2 17 -23q0 -16 -10 -22q-25 -12 -31 -35q-8 -37 -4 -316q8 -401 8 -434q0 -158 -100.5 -263t-253.5 -105q-166 0 -265.5 93t-99.5 255q0 680 -14 760q-2 12 -31 40q-14 14 -14 33zM324 1352q0 8 6 16l170 170q16 20 32 18q23 0 46 -30q63 -66 143 -152q10 -14 10 -31 q0 -43 -39 -43q-20 0 -39 25q-96 127 -123 129q-16 2 -69 -57q-45 -49 -57.5 -70.5t-30.5 -21.5t-33.5 15t-15.5 32z" />
<glyph unicode="&#xdc;" horiz-adv-x="1036" d="M115 1163q0 16 20 15q61 2 146 2q16 -4 16 -25q0 -16 -10 -20q-29 -16 -29 -35q-6 -29 -8 -193q0 -115 2 -323q2 -229 2 -254q0 -123 79 -195t206 -72q119 0 196.5 82t77.5 205q2 14 2 76q0 135 -9 382t-15 282q-2 12 -31 40q-14 16 -15 33q0 16 21 15q61 2 147 2 q14 -2 17 -23q0 -16 -10 -22q-25 -12 -31 -35q-8 -37 -4 -316q8 -401 8 -434q0 -158 -100.5 -263t-253.5 -105q-166 0 -265.5 93t-99.5 255q0 680 -14 760q-2 12 -31 40q-14 14 -14 33zM324 1333q0 57 51 66q63 10 65 -51q2 -57 -51 -66q-66 -10 -65 51zM612 1333 q0 57 52 66q63 10 65 -51q2 -57 -51 -66q-66 -10 -66 51z" />
<glyph unicode="&#xde;" horiz-adv-x="862" d="M57 1163q0 16 21 15q61 2 145 2q16 -4 17 -25q0 -16 -11 -20q-25 -12 -28 -35q-10 -43 -13 -266q-2 -217 5 -228q8 -16 32 6q82 78 236 82q311 8 311 -282q0 -152 -84.5 -258.5t-234.5 -145.5q-106 -29 -213 -20h-27q-14 -2 -16 -29q-6 -92 2 -252q6 -147 11 -166.5 t35.5 -35t30.5 -35.5t-22 -21q-147 0 -170 2q-14 2 -14 21q0 16 12 22q31 14 37 45q8 47 2 776q-6 733 -19 775q-2 12 -30 40q-14 14 -15 33zM201 428q-14 -170 6 -317q18 -47 115 -48q53 0 116 19q228 70 246 285q10 135 -49.5 196.5t-175.5 59.5q-178 -4 -242 -113 q-10 -18 -16 -82z" />
<glyph unicode="&#xdf;" horiz-adv-x="909" d="M109 651q0 23 22 23q43 0 45 37q-4 104 10 321q18 96 95 176q86 90 202 90q133 0 204 -82.5t58 -242.5q-6 -66 -36.5 -139.5t-71.5 -108.5q-10 -10 -10 -18q0 -10 47 -39q151 -95 151 -324q0 -162 -105.5 -255t-270.5 -91q-55 0 -56 43q0 29 56 29q125 0 210.5 75.5 t85.5 198.5q0 154 -79 234q-74 72 -203 71q-61 0 -62 31q0 14 16.5 28.5t37.5 14.5q90 0 151 84q53 72 62 164q20 252 -185 252q-215 0 -237 -269q-16 -225 -17 -690q0 -410 9 -491q4 -45 -35 -45q-41 0 -35 47q2 27 4 375q2 362 -4 397q-10 53 -34.5 68.5t-24.5 35.5z" />
<glyph unicode="&#xe0;" horiz-adv-x="800" d="M92 123q20 158 187 196q23 6 114 13q66 6 68 20q12 78 12 115q0 47 -29 80q-45 51 -88 51q-29 0 -54.5 -19.5t-47.5 -37.5q-12 -8 -23 -9q-31 0 -30 29q0 10 6 21q18 29 22 34q14 14 50 31q47 23 90 23q88 0 155 -103q23 -35 23 -88q0 -27 -8.5 -94.5t-8.5 -110.5 q-2 -125 -4 -112q6 -74 43 -99q23 -14 45 -14q35 0 60 35q6 10 18 10q31 0 31 -31q0 -12 -8 -22q-41 -55 -107 -55q-18 0 -39 6q-51 14 -79 45l-27 31q-4 0 -8 -5q-51 -51 -60 -57q-53 -35 -139 -41q-68 -4 -115 27q-61 39 -49 131zM166 119q-4 -47 26.5 -69.5t75.5 -16.5 q84 10 154 102q29 37 29 96q-1 19 -7 25q-25 25 -145 2q-123 -25 -133 -139zM264 979q0 23 17.5 40t40.5 17q29 0 43 -30q40 -89 106 -97q27 -4 27 -39q0 -39 -49 -28q-109 25 -170 100q-14 16 -15 37z" />
<glyph unicode="&#xe1;" horiz-adv-x="800" d="M92 123q20 158 187 196q23 6 114 13q66 6 68 20q12 78 12 115q0 47 -29 80q-45 51 -88 51q-29 0 -54.5 -19.5t-47.5 -37.5q-12 -8 -23 -9q-31 0 -30 29q0 10 6 21q18 29 22 34q14 14 50 31q47 23 90 23q88 0 155 -103q23 -35 23 -88q0 -27 -8.5 -94.5t-8.5 -110.5 q-2 -125 -4 -112q6 -74 43 -99q23 -14 45 -14q35 0 60 35q6 10 18 10q31 0 31 -31q0 -12 -8 -22q-41 -55 -107 -55q-18 0 -39 6q-51 14 -79 45l-27 31q-4 0 -8 -5q-51 -51 -60 -57q-53 -35 -139 -41q-68 -4 -115 27q-61 39 -49 131zM166 119q-4 -47 26.5 -69.5t75.5 -16.5 q84 10 154 102q29 37 29 96q-1 19 -7 25q-25 25 -145 2q-123 -25 -133 -139zM266 870q0 35 27 39q66 8 106 97q14 31 43 30q20 0 39 -17.5t19 -39.5q-1 -21 -15 -37q-61 -76 -170 -100q-49 -10 -49 28z" />
<glyph unicode="&#xe2;" horiz-adv-x="800" d="M92 123q20 158 187 196q23 6 114 13q66 6 68 20q12 78 12 115q0 47 -29 80q-45 51 -88 51q-29 0 -54.5 -19.5t-47.5 -37.5q-12 -8 -23 -9q-31 0 -30 29q0 10 6 21q18 29 22 34q14 14 50 31q47 23 90 23q88 0 155 -103q23 -35 23 -88q0 -27 -8.5 -94.5t-8.5 -110.5 q-2 -125 -4 -112q6 -74 43 -99q23 -14 45 -14q35 0 60 35q6 10 18 10q31 0 31 -31q0 -12 -8 -22q-41 -55 -107 -55q-18 0 -39 6q-51 14 -79 45l-27 31q-4 0 -8 -5q-51 -51 -60 -57q-53 -35 -139 -41q-68 -4 -115 27q-61 39 -49 131zM160 850q0 10 6 18q74 72 170 168 q16 20 33 21q20 0 43 -31q63 -68 143 -152q12 -14 12 -30q0 -43 -39 -43q-20 0 -39 24q-94 125 -122 129q-18 0 -72 -59q-49 -51 -59.5 -70.5t-28.5 -19.5t-32.5 14.5t-14.5 30.5zM166 119q-4 -47 26.5 -69.5t75.5 -16.5q84 10 154 102q29 37 29 96q-1 19 -7 25 q-25 25 -145 2q-123 -25 -133 -139z" />
<glyph unicode="&#xe3;" horiz-adv-x="800" d="M92 123q20 158 187 196q23 6 114 13q66 6 68 20q12 78 12 115q0 47 -29 80q-45 51 -88 51q-29 0 -54.5 -19.5t-47.5 -37.5q-12 -8 -23 -9q-31 0 -30 29q0 10 6 21q18 29 22 34q14 14 50 31q47 23 90 23q88 0 155 -103q23 -35 23 -88q0 -27 -8.5 -94.5t-8.5 -110.5 q-2 -125 -4 -112q6 -74 43 -99q23 -14 45 -14q35 0 60 35q6 10 18 10q31 0 31 -31q0 -12 -8 -22q-41 -55 -107 -55q-18 0 -39 6q-51 14 -79 45l-27 31q-4 0 -8 -5q-51 -51 -60 -57q-53 -35 -139 -41q-68 -4 -115 27q-61 39 -49 131zM141 850q18 100 142 100q47 0 96 -43 t76 -43q84 2 88 74q2 25 28 25q35 0 35 -37q0 -45 -35 -78q-43 -41 -116 -41q-53 0 -99.5 41t-76.5 41q-41 0 -58 -21q-6 -8 -18 -41q-8 -25 -33 -24q-37 0 -29 47zM166 119q-4 -47 26.5 -69.5t75.5 -16.5q84 10 154 102q29 37 29 96q-1 19 -7 25q-25 25 -145 2 q-123 -25 -133 -139z" />
<glyph unicode="&#xe4;" horiz-adv-x="800" d="M92 123q20 158 187 196q23 6 114 13q66 6 68 20q12 78 12 115q0 47 -29 80q-45 51 -88 51q-29 0 -54.5 -19.5t-47.5 -37.5q-12 -8 -23 -9q-31 0 -30 29q0 10 6 21q18 29 22 34q14 14 50 31q47 23 90 23q88 0 155 -103q23 -35 23 -88q0 -27 -8.5 -94.5t-8.5 -110.5 q-2 -125 -4 -112q6 -74 43 -99q23 -14 45 -14q35 0 60 35q6 10 18 10q31 0 31 -31q0 -12 -8 -22q-41 -55 -107 -55q-18 0 -39 6q-51 14 -79 45l-27 31q-4 0 -8 -5q-51 -51 -60 -57q-53 -35 -139 -41q-68 -4 -115 27q-61 39 -49 131zM166 119q-4 -47 26.5 -69.5t75.5 -16.5 q84 10 154 102q29 37 29 96q-1 19 -7 25q-25 25 -145 2q-123 -25 -133 -139zM223 903q0 57 51 66q25 4 45.5 -10t20.5 -41q0 -57 -51 -66q-66 -10 -66 51zM432 903q0 57 51 66q27 4 47.5 -10t20.5 -41q0 -57 -51 -66q-68 -10 -68 51z" />
<glyph unicode="&#xe5;" horiz-adv-x="800" d="M92 123q20 158 187 196q23 6 114 13q66 6 68 20q12 78 12 115q0 47 -29 80q-45 51 -88 51q-29 0 -54.5 -19.5t-47.5 -37.5q-12 -8 -23 -9q-31 0 -30 29q0 10 6 21q18 29 22 34q14 14 50 31q47 23 90 23q88 0 155 -103q23 -35 23 -88q0 -27 -8.5 -94.5t-8.5 -110.5 q-2 -125 -4 -112q6 -74 43 -99q23 -14 45 -14q35 0 60 35q6 10 18 10q31 0 31 -31q0 -12 -8 -22q-41 -55 -107 -55q-18 0 -39 6q-51 14 -79 45l-27 31q-4 0 -8 -5q-51 -51 -60 -57q-53 -35 -139 -41q-68 -4 -115 27q-61 39 -49 131zM166 119q-4 -47 26.5 -69.5t75.5 -16.5 q84 10 154 102q29 37 29 96q-1 19 -7 25q-25 25 -145 2q-123 -25 -133 -139zM223 920q0 66 34 114.5t95 57.5q68 10 118 -25.5t54 -105.5q4 -74 -42 -123.5t-120 -49.5q-59 0 -96 31q-43 37 -43 101zM285 930q0 -43 30.5 -63.5t69.5 -14.5q82 14 78 100q-2 41 -33 62.5 t-70 15.5q-76 -10 -75 -100z" />
<glyph unicode="&#xe6;" horiz-adv-x="1132" d="M92 123q20 158 187 196q23 6 114 13q66 6 68 20q12 78 12 115q0 47 -29 80q-45 51 -88 51q-29 0 -54.5 -19.5t-47.5 -37.5q-12 -8 -23 -9q-31 0 -30 29q0 10 6 21q18 29 22 34q14 14 50 31q47 23 90 23q90 0 155 -103q4 -6 8 -6t39 37q80 82 193 86q135 4 211 -59 q63 -55 51 -131q-10 -59 -129 -109q-88 -37 -180 -49q-68 -10 -135 -12q-29 0 -25 -31q18 -106 93 -174t181 -68q66 0 115 29t55 29q29 0 29 -31q0 -16 -14 -33q-84 -63 -197 -63q-172 0 -268 131q-18 25 -35 24q-14 0 -22 -22q-20 -33 -39 -52q-51 -51 -60 -57 q-53 -35 -139 -41q-68 -4 -115 27q-61 39 -49 131zM166 119q-4 -47 26.5 -69.5t75.5 -16.5q84 10 154 102q29 37 29 96q-1 19 -7 25q-25 25 -145 2q-123 -25 -133 -139zM557 412q-2 -10 3 -17.5t20 -7.5q119 6 196 25q152 34 168 100q12 47 -45 80t-135 26q-68 -4 -125 -55 q-66 -57 -82 -151z" />
<glyph unicode="&#xe7;" horiz-adv-x="739" d="M86 350q0 154 94 250q84 84 191 84q76 0 129 -12q25 -8 49 -15q12 0 30.5 7.5t26.5 7.5q10 0 20.5 -10.5t14.5 -32.5q0 -16 -2 -49q-2 -41 -2 -56q0 -31 -27 -30q-29 0 -45 41q-39 96 -205 83q-80 -6 -135 -71q-63 -74 -63 -197q0 -125 81 -213t201 -88q61 0 111.5 26.5 t52.5 26.5q27 0 27 -28q0 -16 -12 -29q-72 -53 -160 -61q-14 0 -25 -27q-10 -47 -10 -61q0 -10 6 -13q4 -2 15 2q20 4 45 4q130 0 159 -106q6 -20 6 -41q0 -68 -50 -117t-134 -55q-147 -8 -184 78q-2 6 -2 12q0 37 30 37q16 0 29 -19q37 -55 131 -45q45 4 83 39t30 84 q-14 76 -107 76q-20 0 -54 -10t-48 -10q-29 0 -29 36q0 18 27 115q4 18 -23 27q-123 20 -197.5 120.5t-74.5 239.5z" />
<glyph unicode="&#xe8;" horiz-adv-x="733" d="M86 350q0 154 94 248q82 82 191 86q137 4 211 -59q65 -55 53 -131q-8 -51 -109 -99q-74 -35 -147 -51q-90 -18 -191 -20q-27 0 -22 -31q18 -106 92 -174t180 -68q66 0 116 29t54 29q29 0 29 -31q0 -16 -14 -33q-84 -63 -195 -63q-154 0 -248 104t-94 264zM166 412 q-2 -12 3 -18.5t17 -6.5q121 6 197 25q156 37 170 100q10 47 -47 80t-135 26q-68 -4 -123 -55q-66 -57 -82 -151zM285 979q0 23 18.5 40t40.5 17q29 0 43 -30q41 -89 107 -97q27 -4 26 -39q0 -39 -49 -28q-45 10 -98.5 41.5t-73.5 58.5q-14 16 -14 37z" />
<glyph unicode="&#xe9;" horiz-adv-x="733" d="M86 350q0 154 94 248q82 82 191 86q137 4 211 -59q65 -55 53 -131q-8 -51 -109 -99q-74 -35 -147 -51q-90 -18 -191 -20q-27 0 -22 -31q18 -106 92 -174t180 -68q66 0 116 29t54 29q29 0 29 -31q0 -16 -14 -33q-84 -63 -195 -63q-154 0 -248 104t-94 264zM166 412 q-2 -12 3 -18.5t17 -6.5q121 6 197 25q156 37 170 100q10 47 -47 80t-135 26q-68 -4 -123 -55q-66 -57 -82 -151zM309 870q0 35 27 39q66 8 106 97q14 31 43 30q23 0 41.5 -17.5t18.5 -39.5q-1 -21 -15 -37q-20 -27 -73.5 -58.5t-98.5 -41.5q-49 -10 -49 28z" />
<glyph unicode="&#xea;" horiz-adv-x="733" d="M86 350q0 154 94 248q82 82 191 86q137 4 211 -59q65 -55 53 -131q-8 -51 -109 -99q-74 -35 -147 -51q-90 -18 -191 -20q-27 0 -22 -31q18 -106 92 -174t180 -68q66 0 116 29t54 29q29 0 29 -31q0 -16 -14 -33q-84 -63 -195 -63q-154 0 -248 104t-94 264zM166 412 q-2 -12 3 -18.5t17 -6.5q121 6 197 25q156 37 170 100q10 47 -47 80t-135 26q-68 -4 -123 -55q-66 -57 -82 -151zM199 850q0 10 6 18q74 72 170 168q18 20 35 21q20 0 43 -31q63 -68 143 -152q10 -14 10 -30q0 -43 -39 -43q-20 0 -39 24q-92 125 -122 129q-18 0 -72 -59 q-49 -51 -59.5 -70.5t-28.5 -19.5t-32.5 14.5t-14.5 30.5z" />
<glyph unicode="&#xeb;" horiz-adv-x="733" d="M86 350q0 154 94 248q82 82 191 86q137 4 211 -59q65 -55 53 -131q-8 -51 -109 -99q-74 -35 -147 -51q-90 -18 -191 -20q-27 0 -22 -31q18 -106 92 -174t180 -68q66 0 116 29t54 29q29 0 29 -31q0 -16 -14 -33q-84 -63 -195 -63q-154 0 -248 104t-94 264zM166 412 q-2 -12 3 -18.5t17 -6.5q121 6 197 25q156 37 170 100q10 47 -47 80t-135 26q-68 -4 -123 -55q-66 -57 -82 -151zM248 903q0 57 51 66q27 4 47.5 -10t20.5 -41q0 -57 -52 -66q-68 -10 -67 51zM459 903q0 57 51 66q63 10 65 -51q2 -57 -51 -66q-66 -10 -65 51z" />
<glyph unicode="&#xec;" d="M111 629q0 29 59 45q33 8 59 8q37 -2 31 -29q-8 -45 -8 -286q0 -238 8 -283q2 -8 29 -41q10 -8 10 -25q0 -20 -25 -20h-141q-14 2 -14 20q0 16 12 23q29 12 37 48t8 245q0 203 -8 241q-4 23 -30.5 31t-26.5 23zM111 979q0 23 17 40t40 17q29 0 43 -30q40 -89 106 -97 q27 -4 27 -39q0 -39 -49 -28q-109 25 -170 100q-14 16 -14 37z" />
<glyph unicode="&#xed;" d="M98 870q0 35 27 39q68 8 108 97q14 29 43 28q20 0 39 -16.5t19 -38.5q-1 -21 -15 -37q-61 -76 -172 -100q-49 -10 -49 28zM111 629q0 29 59 45q33 8 59 8q37 -2 31 -29q-8 -45 -8 -286q0 -238 8 -283q2 -8 29 -41q10 -8 10 -25q0 -20 -25 -20h-141q-14 2 -14 20 q0 16 12 23q29 12 37 48t8 245q0 203 -8 241q-4 23 -30.5 31t-26.5 23z" />
<glyph unicode="&#xee;" d="M10 850q0 10 6 18q74 72 170 168q16 20 35 21q20 0 43 -31q64 -66 144 -152q10 -14 10 -28q0 -45 -39 -45q-20 0 -39 24q-92 125 -123 129q-18 0 -72 -59q-49 -51 -59 -70.5t-29 -19.5q-18 0 -32.5 14.5t-14.5 30.5zM111 629q0 29 59 45q33 8 59 8q37 -2 31 -29 q-8 -45 -8 -286q0 -238 8 -283q2 -8 29 -41q10 -8 10 -25q0 -20 -25 -20h-141q-14 2 -14 20q0 16 12 23q29 12 37 48t8 245q0 203 -8 241q-4 23 -30.5 31t-26.5 23z" />
<glyph unicode="&#xef;" d="M47 903q0 57 51 66q64 10 66 -51q2 -57 -51 -66q-66 -10 -66 51zM111 629q0 29 59 45q33 8 59 8q37 -2 31 -29q-8 -45 -8 -286q0 -238 8 -283q2 -8 29 -41q10 -8 10 -25q0 -20 -25 -20h-141q-14 2 -14 20q0 16 12 23q29 12 37 48t8 245q0 203 -8 241q-4 23 -30.5 31 t-26.5 23zM258 903q0 57 51 66q25 4 45.5 -10t20.5 -41q2 -57 -51 -66q-66 -10 -66 51z" />
<glyph unicode="&#xf0;" horiz-adv-x="851" d="M74 336q0 158 106 252q98 86 242 86q92 0 168 -47q12 -8 20 -9q16 0 17 25q4 129 -133 311q-49 63 -113 101q-29 16 -53 -31l-29 -70q-10 -27 -39 -26q-37 0 -37 33q0 10 56 98q23 37 -15 43q-63 10 -104 10t-41 29q0 31 41 33q66 4 133 -13q43 -16 57 19q31 55 43 88 q8 27 35 26q45 0 45 -34q0 -8 -8 -17q-23 -25 -64 -86q-10 -16 -10 -20q0 -12 27 -27q78 -49 137 -117q195 -223 195 -559q-1 -60 -9 -119q-20 -160 -106 -249q-92 -98 -240 -84q-322 31 -321 354zM156 336q0 -242 239 -273q100 -12 174.5 61.5t92.5 190.5q4 31 4 60 q0 205 -244 219q-104 6 -182 -64q-84 -74 -84 -194z" />
<glyph unicode="&#xf1;" horiz-adv-x="841" d="M94 629q-2 37 47 49q29 8 64 -2t28 -35v-41q0 -23 25 -4q88 84 186 86q197 6 211 -213q6 -86 -6 -180q-14 -106 -14 -123q0 -33 8 -60q14 -49 41 -49q16 0 29.5 21.5t27.5 21.5q29 0 29 -26q0 -11 -6 -21q-33 -51 -82 -55t-84 38t-37 95q-2 59 11.5 139t13.5 121 q0 31 -4 64q-23 170 -156 161q-90 -4 -166 -106q-29 -39 -31 -113q-4 -242 9 -313q2 -14 28 -41q10 -8 10 -25q0 -20 -24 -20h-141q-14 2 -15 20q0 16 13 23q31 14 36 45q8 41 9 244q0 203 -9 239q-4 23 -27.5 34t-23.5 26zM203 850q18 100 141 100q47 0 96 -43t76 -43 q84 2 88 74q2 25 29 25q35 0 35 -37q0 -45 -35 -78q-43 -41 -117 -41q-53 0 -99 41t-77 41q-41 0 -57 -21q-6 -8 -19 -41q-8 -25 -33 -24q-37 0 -28 47z" />
<glyph unicode="&#xf2;" horiz-adv-x="851" d="M94 330q0 150 105.5 258t251.5 108q311 0 311 -346q0 -158 -100.5 -263t-253.5 -105q-313 0 -314 348zM176 330q0 -266 232 -267q119 0 196.5 82t77.5 205q0 266 -231 266q-113 0 -194 -85t-81 -201zM315 979q0 23 18.5 40t41.5 17q29 0 43 -30q40 -89 106 -97 q27 -4 27 -39q0 -39 -49 -28q-45 10 -98.5 41.5t-73.5 58.5q-14 16 -15 37z" />
<glyph unicode="&#xf3;" horiz-adv-x="851" d="M94 330q0 150 105.5 258t251.5 108q311 0 311 -346q0 -158 -100.5 -263t-253.5 -105q-313 0 -314 348zM176 330q0 -266 232 -267q119 0 196.5 82t77.5 205q0 266 -231 266q-113 0 -194 -85t-81 -201zM381 870q0 35 27 39q66 8 106 97q14 31 43 30q20 0 38.5 -17.5 t18.5 -39.5q0 -21 -14 -37q-61 -76 -172 -100q-47 -10 -47 28z" />
<glyph unicode="&#xf4;" horiz-adv-x="851" d="M94 330q0 150 105.5 258t251.5 108q311 0 311 -346q0 -158 -100.5 -263t-253.5 -105q-313 0 -314 348zM176 330q0 -266 232 -267q119 0 196.5 82t77.5 205q0 266 -231 266q-113 0 -194 -85t-81 -201zM238 850q0 10 6 18q74 72 168 168q16 20 34 21q20 0 43 -31 q64 -68 144 -152q12 -14 12 -30q0 -43 -39 -43q-23 0 -41 24q-94 127 -123 129q-18 0 -68 -56t-60.5 -74.5t-28.5 -18.5t-32.5 14.5t-14.5 30.5z" />
<glyph unicode="&#xf5;" horiz-adv-x="851" d="M94 330q0 150 105.5 258t251.5 108q311 0 311 -346q0 -158 -100.5 -263t-253.5 -105q-313 0 -314 348zM176 330q0 -266 232 -267q119 0 196.5 82t77.5 205q0 266 -231 266q-113 0 -194 -85t-81 -201zM256 850q20 100 141 100q47 0 96.5 -43t75.5 -43q82 2 88 74 q2 25 29 25q33 0 33 -37q0 -45 -35 -78q-41 -41 -115 -41q-53 0 -99 41t-77 41q-59 0 -78 -62q-8 -25 -32 -24q-37 0 -27 47z" />
<glyph unicode="&#xf6;" horiz-adv-x="851" d="M94 330q0 150 105.5 258t251.5 108q311 0 311 -346q0 -158 -100.5 -263t-253.5 -105q-313 0 -314 348zM176 330q0 -266 232 -267q119 0 196.5 82t77.5 205q0 266 -231 266q-113 0 -194 -85t-81 -201zM295 903q0 57 51 66q64 10 66 -51q2 -57 -52 -66q-66 -10 -65 51z M506 903q0 57 51 66q64 10 66 -51q2 -57 -52 -66q-66 -10 -65 51z" />
<glyph unicode="&#xf7;" horiz-adv-x="503" d="M59 326q0 45 58 43q179 -4 245 0q43 4 44 -43q0 -41 -50 -41q-268 4 -252 4q-45 0 -45 37zM162 43q0 76 61 82q33 6 56.5 -10.5t25.5 -51.5q4 -72 -61 -81q-33 -4 -57.5 12t-24.5 49zM166 571q0 74 61 82q33 4 56.5 -12t25.5 -49q4 -76 -61 -82q-33 -6 -57.5 10.5 t-24.5 50.5z" />
<glyph unicode="&#xf8;" horiz-adv-x="851" d="M51 -49q0 12 15 26l51 52q31 37 30 51q0 20 -14 49q-39 80 -39 201q0 150 105.5 258t251.5 108q80 0 141 -24q45 -18 76 22q14 18 31.5 41t43.5 23q49 0 50 -37q0 -4 -66 -88q-16 -20 -16 -39q0 -18 12 -45q39 -80 39 -199q0 -158 -100.5 -263t-253.5 -105q-68 0 -120 17 t-50 17q-20 0 -41 -24l-52 -62q-8 -20 -36 -20q-57 0 -58 41zM176 330q0 -88 21 -140q10 -27 24 -26q14 0 31 20q162 188 283 340q23 29 22 51q0 41 -106 41q-113 0 -194 -85t-81 -201zM289 98q0 -14 35.5 -24.5t83.5 -10.5q119 0 196.5 82t77.5 205q0 82 -20 133 q-8 23 -29 23q-14 0 -27 -21q-109 -127 -305 -366q-12 -14 -12 -21z" />
<glyph unicode="&#xf9;" horiz-adv-x="841" d="M135 633q0 27 62 43q82 23 90 -19q10 -49 10 -92q0 -78 -41 -188q-39 -102 -31 -164q20 -162 174 -154q94 6 166 103q27 37 31 129q6 152 -21 291q-2 14 -34 41q-27 31 12 46t63 15q51 0 52 -59q0 -18 -4 -43q-8 -39 -2 -246q6 -195 14 -239t43 -44q31 0 51 29 q6 10 18 10q23 0 23 -22q0 -13 -8 -25q-41 -61 -113 -53q-63 8 -84 71q-10 29 -41 7q-90 -82 -184 -84q-96 -2 -158.5 55t-70.5 158q-6 66 31.5 184.5t31.5 171.5q-6 51 -43 60.5t-37 17.5zM272 979q0 23 18.5 40t39.5 17q29 0 43 -30q40 -89 106 -97q27 -4 27 -39 q0 -39 -47 -28q-111 25 -172 100q-14 16 -15 37z" />
<glyph unicode="&#xfa;" horiz-adv-x="841" d="M135 633q0 27 62 43q82 23 90 -19q10 -49 10 -92q0 -78 -41 -188q-39 -102 -31 -164q20 -162 174 -154q94 6 166 103q27 37 31 129q6 152 -21 291q-2 14 -34 41q-27 31 12 46t63 15q51 0 52 -59q0 -18 -4 -43q-8 -39 -2 -246q6 -195 14 -239t43 -44q31 0 51 29 q6 10 18 10q23 0 23 -22q0 -13 -8 -25q-41 -61 -113 -53q-63 8 -84 71q-10 29 -41 7q-90 -82 -184 -84q-96 -2 -158.5 55t-70.5 158q-6 66 31.5 184.5t31.5 171.5q-6 51 -43 60.5t-37 17.5zM328 870q0 35 26 39q66 8 107 97q14 31 43 30q20 0 38.5 -17.5t18.5 -39.5 q0 -21 -14 -37q-61 -76 -170 -100q-49 -10 -49 28z" />
<glyph unicode="&#xfb;" horiz-adv-x="841" d="M135 633q0 27 62 43q82 23 90 -19q10 -49 10 -92q0 -78 -41 -188q-39 -102 -31 -164q20 -162 174 -154q94 6 166 103q27 37 31 129q6 152 -21 291q-2 14 -34 41q-27 31 12 46t63 15q51 0 52 -59q0 -18 -4 -43q-8 -39 -2 -246q6 -195 14 -239t43 -44q31 0 51 29 q6 10 18 10q23 0 23 -22q0 -13 -8 -25q-41 -61 -113 -53q-63 8 -84 71q-10 29 -41 7q-90 -82 -184 -84q-96 -2 -158.5 55t-70.5 158q-6 66 31.5 184.5t31.5 171.5q-6 51 -43 60.5t-37 17.5zM199 850q0 10 6 18q74 72 170 168q18 20 35 21q20 0 43 -31q63 -68 143 -152 q10 -14 10 -30q0 -43 -39 -43q-20 0 -39 24q-92 125 -122 129q-18 0 -72 -59q-49 -51 -59.5 -70.5t-28.5 -19.5t-32.5 14.5t-14.5 30.5z" />
<glyph unicode="&#xfc;" horiz-adv-x="841" d="M135 633q0 27 62 43q82 23 90 -19q10 -49 10 -92q0 -78 -41 -188q-39 -102 -31 -164q20 -162 174 -154q94 6 166 103q27 37 31 129q6 152 -21 291q-2 14 -34 41q-27 31 12 46t63 15q51 0 52 -59q0 -18 -4 -43q-8 -39 -2 -246q6 -195 14 -239t43 -44q31 0 51 29 q6 10 18 10q23 0 23 -22q0 -13 -8 -25q-41 -61 -113 -53q-63 8 -84 71q-10 29 -41 7q-90 -82 -184 -84q-96 -2 -158.5 55t-70.5 158q-6 66 31.5 184.5t31.5 171.5q-6 51 -43 60.5t-37 17.5zM262 903q0 57 51 66q64 10 66 -51q2 -57 -51 -66q-66 -10 -66 51zM473 903 q0 57 51 66q25 4 45.5 -10t20.5 -41q2 -57 -51 -66q-66 -10 -66 51z" />
<glyph unicode="&#xfe;" horiz-adv-x="862" d="M63 1257q-4 33 62 46q72 14 78 -21q2 -10 -6 -211q-8 -231 -9 -342q0 -86 5 -123q0 -8 12 -4q12 2 20 10q82 78 236 82q311 8 311 -282q0 -152 -84.5 -258.5t-234.5 -145.5q-106 -29 -213 -20h-27q-14 -2 -16 -29q-6 -92 2 -252q6 -147 11 -166.5t35.5 -35t30.5 -35.5 t-22 -21q-147 0 -170 2q-14 2 -14 21q0 16 12 22q31 14 37 45q8 45 6 836t-10 827q-4 20 -26.5 30.5t-25.5 24.5zM201 428q-14 -170 6 -317q18 -47 115 -48q53 0 116 19q228 70 246 285q10 135 -49.5 196.5t-175.5 59.5q-178 -4 -242 -113q-10 -18 -16 -82z" />
<glyph unicode="&#xff;" horiz-adv-x="724" d="M-55 -459q-20 59 12 74q12 6 23 6q37 0 43 -43q12 -74 77 -74q129 0 203 197q90 244 74 313q-4 18 -68 84q-76 74 -116 154q-66 125 -82 299q-2 20 -31 35q-20 8 -39 16q-10 10 -10 27q0 20 24 20q94 0 127 -2q18 -2 19 -16q0 -6 -10.5 -36t-8.5 -50q8 -154 78 -275 q53 -96 123 -139q18 -12 47 19q14 14 55 180t45 219q4 49 -10 55t-14 25q0 16 14.5 18t126.5 2q25 0 25 -20q0 -17 -10 -27q-20 -6 -46 -37q-168 -629 -178 -665q-70 -244 -128 -339.5t-156 -121.5q-23 -6 -48 -6q-125 0 -161 108zM225 903q0 57 51 66q64 10 66 -51 q2 -57 -51 -66q-66 -10 -66 51zM436 903q0 57 51 66q64 10 66 -51q2 -57 -51 -66q-66 -10 -66 51z" />
<glyph unicode="&#x152;" horiz-adv-x="1544" d="M104 561q0 266 154 451.5t389 185.5q70 0 162 -18q86 -16 477 -4q20 0 47 4t33 4q25 0 25 -35q0 -10 -7.5 -45t-7.5 -66.5t-33 -31.5t-30.5 46t-55.5 52q-137 16 -215 16q-90 0 -96 -20q-10 -31 -10 -391q0 -25 27 -27q219 -12 249 6q23 12 24 33.5t19 21.5q29 0 33 -32 q-2 -41 -2 -97q4 -35 -29 -34q-27 0 -30 26q2 6 -21 27q-35 20 -241 4q-29 -2 -29 -33q4 -473 14 -520q4 -20 162 -21q164 0 242 11l45 6q14 6 12 33q-2 45 31 45q31 0 31 -31q0 -18 4 -61q2 -23 -4 -39q-10 -33 -25 -33q-4 0 -24.5 4t-41.5 4q-424 18 -565 -4 q-92 -37 -203 -37q-510 0 -510 600zM186 561q0 -518 428 -518q135 0 246 72q6 109 2 495q-6 375 -12 467q-84 39 -203 39q-203 0 -332 -162.5t-129 -392.5z" />
<glyph unicode="&#x153;" horiz-adv-x="1339" d="M94 330q0 150 105.5 258t251.5 108q176 0 254 -112q12 -27 26 -27t33 18q84 104 211 109q137 4 211 -59q63 -55 51 -131q-10 -53 -113 -101q-80 -37 -161.5 -52t-171.5 -17q-27 0 -23 -31q16 -106 92 -174t182 -68q66 0 115 29t55 29q29 0 29 -31q0 -16 -14 -33 q-88 -63 -197 -63q-178 0 -270 135q-18 35 -35 35q-12 0 -27 -21q-106 -150 -290 -149q-313 0 -314 348zM176 330q0 -266 232 -267q119 0 196.5 82t77.5 205q0 266 -231 266q-113 0 -194 -85t-81 -201zM768 412q-2 -10 3 -17.5t20 -7.5q119 6 194 25q156 37 170 100 q10 47 -47 80t-133 26q-68 -4 -125 -55q-66 -57 -82 -151z" />
<glyph unicode="&#x178;" horiz-adv-x="944" d="M29 1155q2 20 24 21q127 0 150 -2q14 -2 14 -19q0 -16 -12 -25q-20 -14 -8 -57q18 -63 129 -282q100 -199 116 -220q16 -31 41 -4q14 16 134 245.5t131 262.5q14 49 -1.5 56.5t-15.5 23.5q0 18 14 21h127q25 0 25 -21q0 -17 -10 -27q-16 -6 -45 -36q-100 -205 -314 -588 q-25 -45 -24 -109q0 -217 10 -305q4 -18 31 -41q10 -12 10 -29q-2 -18 -25 -18h-143q-14 2 -14 21q2 16 14 22q29 12 35 45q12 66 0 313q-2 35 -4 50q-6 27 -21 55q-143 262 -307 575q-6 14 -24 27q-25 16 -27 18q-10 10 -10 27zM313 1376q0 57 52 66q63 10 65 -51 q2 -57 -51 -66q-66 -10 -66 51zM524 1376q0 57 51 66q64 10 66 -51q2 -57 -51 -66q-66 -10 -66 51z" />
<glyph unicode="&#x2c6;" horiz-adv-x="800" d="M199 850q0 10 6 18q74 72 170 168q18 20 35 21q20 0 43 -31q63 -68 143 -152q10 -14 10 -30q0 -43 -39 -43q-20 0 -39 24q-92 125 -122 129q-18 0 -72 -59q-49 -51 -59.5 -70.5t-28.5 -19.5t-32.5 14.5t-14.5 30.5z" />
<glyph unicode="&#x2dc;" horiz-adv-x="800" d="M176 850q18 100 141 100q49 0 97.5 -43t74.5 -43q82 2 89 74q2 25 28 25q35 0 35 -37q0 -45 -35 -78q-43 -41 -117 -41q-53 0 -98 41t-76 41q-41 0 -59 -21q-6 -8 -18 -41q-8 -25 -33 -24q-37 0 -29 47z" />
<glyph unicode="&#x2000;" horiz-adv-x="788" />
<glyph unicode="&#x2001;" horiz-adv-x="1577" />
<glyph unicode="&#x2002;" horiz-adv-x="788" />
<glyph unicode="&#x2003;" horiz-adv-x="1577" />
<glyph unicode="&#x2004;" horiz-adv-x="525" />
<glyph unicode="&#x2005;" horiz-adv-x="394" />
<glyph unicode="&#x2006;" horiz-adv-x="262" />
<glyph unicode="&#x2007;" horiz-adv-x="262" />
<glyph unicode="&#x2008;" horiz-adv-x="197" />
<glyph unicode="&#x2009;" horiz-adv-x="315" />
<glyph unicode="&#x200a;" horiz-adv-x="87" />
<glyph unicode="&#x2010;" horiz-adv-x="503" d="M59 426q0 43 58 43q208 -2 245 0q43 4 44 -41q0 -41 -50 -41q-221 4 -252 2q-45 -2 -45 37z" />
<glyph unicode="&#x2011;" horiz-adv-x="503" d="M59 426q0 43 58 43q208 -2 245 0q43 4 44 -41q0 -41 -50 -41q-221 4 -252 2q-45 -2 -45 37z" />
<glyph unicode="&#x2012;" horiz-adv-x="503" d="M59 426q0 43 58 43q208 -2 245 0q43 4 44 -41q0 -41 -50 -41q-221 4 -252 2q-45 -2 -45 37z" />
<glyph unicode="&#x2013;" horiz-adv-x="595" d="M59 426q0 43 58 43q291 -4 342 0q43 4 43 -41q0 -41 -49 -41q-291 4 -349 2q-45 -2 -45 37z" />
<glyph unicode="&#x2014;" horiz-adv-x="921" d="M59 426q0 43 58 43q514 -6 606 0q43 4 43 -41q0 -41 -51 -41q-481 6 -611 2q-45 -2 -45 37z" />
<glyph unicode="&#x2018;" horiz-adv-x="360" d="M82 1036q0 125 123 164q29 10 28 -18q0 -14 -16 -19q-57 -16 -57 -61q0 -31 46 -44.5t46 -60.5q0 -72 -62 -82q-70 -10 -96 54q-12 31 -12 67z" />
<glyph unicode="&#x2019;" horiz-adv-x="360" d="M100 1106q0 72 62 82q67 13 94 -53q12 -33 12 -68q0 -125 -123 -164q-29 -8 -28 19q0 14 16 18q57 16 57 64q0 29 -45 42t-45 60z" />
<glyph unicode="&#x201a;" horiz-adv-x="360" d="M100 43q0 76 62 82q67 15 94 -51q14 -33 14 -70q0 -125 -125 -164q-29 -8 -28 19q0 16 16 20q57 16 57 64q0 29 -45 42t-45 58z" />
<glyph unicode="&#x201c;" horiz-adv-x="663" d="M82 1036q0 125 123 164q29 10 28 -18q0 -14 -16 -19q-57 -16 -57 -61q0 -31 46 -44.5t46 -60.5q0 -72 -62 -82q-70 -10 -96 54q-12 31 -12 67zM354 1036q0 125 123 164q29 10 29 -18q0 -14 -17 -19q-57 -16 -57 -61q0 -31 46 -44.5t46 -60.5q0 -72 -61 -82 q-70 -10 -96 54q-12 31 -13 67z" />
<glyph unicode="&#x201d;" horiz-adv-x="663" d="M100 1106q0 72 62 82q67 13 94 -53q12 -33 12 -68q0 -125 -123 -164q-29 -8 -28 19q0 14 16 18q57 16 57 64q0 29 -45 42t-45 60zM371 1106q0 72 61 82q69 13 96 -53q12 -33 13 -68q0 -125 -123 -164q-29 -8 -29 19q0 14 17 18q57 16 57 64q0 29 -46 43t-46 59z" />
<glyph unicode="&#x201e;" horiz-adv-x="632" d="M100 43q0 76 62 82q67 15 94 -51q14 -33 14 -70q0 -125 -125 -164q-29 -8 -28 19q0 16 16 20q57 16 57 64q0 29 -45 42t-45 58zM362 43q0 76 62 82q69 15 96 -51q12 -31 12 -68q0 -127 -122 -166q-29 -10 -29 19q0 14 16 20q57 16 58 64q0 29 -46.5 42t-46.5 58z" />
<glyph unicode="&#x2022;" horiz-adv-x="851" d="M176 315q0 121 64.5 200t175.5 79q123 0 194.5 -67.5t71.5 -190.5q0 -125 -61.5 -199t-178.5 -74q-125 0 -195.5 66t-70.5 186z" />
<glyph unicode="&#x2026;" horiz-adv-x="901" d="M100 43q0 76 62 82q33 6 56.5 -10.5t25.5 -51.5q4 -72 -62 -81q-33 -4 -57.5 12t-24.5 49zM375 43q0 76 61 82q33 6 56.5 -10.5t25.5 -51.5q4 -72 -61 -81q-33 -4 -57.5 12t-24.5 49zM657 43q0 76 62 82q33 6 57.5 -10.5t24.5 -51.5q6 -72 -62 -81q-33 -4 -57.5 12 t-24.5 49z" />
<glyph unicode="&#x202f;" horiz-adv-x="315" />
<glyph unicode="&#x2039;" horiz-adv-x="768" d="M184 313q0 23 21 43q150 143 340 332q12 14 30 14q45 0 46 -45q0 -18 -19 -36q-117 -111 -313 -302q131 -127 313 -305q20 -20 21 -43q0 -43 -39 -43q-18 0 -33 17q-33 35 -346 334q-20 10 -21 34z" />
<glyph unicode="&#x203a;" horiz-adv-x="768" d="M207 -29q0 23 20 43q121 115 314 305q-135 129 -314 302q-18 16 -18 36q0 45 49 45q16 0 29 -14q139 -135 340 -332q18 -18 18 -41q0 -24 -18 -36l-348 -334q-14 -14 -31 -15q-41 0 -41 41z" />
<glyph unicode="&#x205f;" horiz-adv-x="394" />
<glyph unicode="&#x2122;" horiz-adv-x="847" d="M49 578q0 12 2 26t2 19q0 25 19 28q-2 0 41 -2q174 -6 284 0q74 4 80 -8q16 -59 53 -203q6 -25 21 0q39 100 80 207q10 14 22 14q16 0 29 -20q16 -111 35 -221q32 -209 59 -234q10 -10 4 -26t-30 -17h-58q-41 -6 -41 21q0 16 13 22q16 18 16 72q0 74 -29 197 q-4 18 -12 18q-6 0 -12 -14q-43 -111 -70 -158q-14 -16 -31 -16q-20 0 -26 26q-27 100 -41 160q-6 23 -13 23q-4 -2 -8 -13q-53 -242 -61 -268l4 -18q14 -12 14 -31q0 -20 -24 -21l-150 4q-35 -4 -35 23q0 12 9.5 18.5t17.5 14.5q4 23 8 188q2 174 -4 189q-14 29 -86 18 q-23 0 -37 -21q-12 -37 -26 -36q-18 0 -19 39zM281 410q0 -160 4 -176.5t12 -16.5t12 8q38 82 97 344q4 18 -29 27l-31 4q-25 2 -39 0q-20 -4 -23 -17.5t-3 -172.5z" />
<glyph unicode="&#x25fc;" horiz-adv-x="645" d="M0 0v645h645v-645h-645z" />
</font>
</defs>
</svg>
